<mxfile host="Electron" agent="Mozilla/5.0 (X11; Linux x86_64) AppleWebKit/537.36 (KHTML, like Gecko) draw.io/28.2.5 Chrome/138.0.7204.251 Electron/37.6.1 Safari/537.36" version="28.2.5">
  <diagram name="MVP infra" id="abTKFTvzTnPFnewMIgW6">
    <mxGraphModel dx="1040" dy="1590" grid="1" gridSize="10" guides="1" tooltips="1" connect="1" arrows="1" fold="1" page="1" pageScale="1" pageWidth="1169" pageHeight="827" math="0" shadow="0">
      <root>
        <mxCell id="gOicUnMFKX1mOjjVZa7J-0" />
        <mxCell id="gOicUnMFKX1mOjjVZa7J-1" parent="gOicUnMFKX1mOjjVZa7J-0" />
        <mxCell id="WrLINpsRZo3zSWrrOjiG-0" value="" style="rounded=0;whiteSpace=wrap;html=1;fillColor=none;" parent="gOicUnMFKX1mOjjVZa7J-1" vertex="1">
          <mxGeometry x="215" y="-140" width="200" height="80" as="geometry" />
        </mxCell>
        <mxCell id="gOicUnMFKX1mOjjVZa7J-2" style="rounded=0;orthogonalLoop=1;jettySize=auto;html=1;entryX=0.005;entryY=0.63;entryDx=0;entryDy=0;entryPerimeter=0;" parent="gOicUnMFKX1mOjjVZa7J-1" source="gOicUnMFKX1mOjjVZa7J-3" target="lRm5DmyOPcoMYIZVMF6W-0" edge="1">
          <mxGeometry relative="1" as="geometry">
            <mxPoint x="110" y="176" as="targetPoint" />
          </mxGeometry>
        </mxCell>
        <mxCell id="gOicUnMFKX1mOjjVZa7J-3" value="Mobile" style="shape=image;verticalLabelPosition=bottom;labelBackgroundColor=#ffffff;verticalAlign=top;aspect=fixed;imageAspect=0;image=data:image/svg+xml,PHN2ZyB4bWxuczpjYz0iaHR0cDovL2NyZWF0aXZlY29tbW9ucy5vcmcvbnMjIiB4bWxuczpkYz0iaHR0cDovL3B1cmwub3JnL2RjL2VsZW1lbnRzLzEuMS8iIHhtbG5zOmlua3NjYXBlPSJodHRwOi8vd3d3Lmlua3NjYXBlLm9yZy9uYW1lc3BhY2VzL2lua3NjYXBlIiB4bWxuczpyZGY9Imh0dHA6Ly93d3cudzMub3JnLzE5OTkvMDIvMjItcmRmLXN5bnRheC1ucyMiIHhtbG5zOnNvZGlwb2RpPSJodHRwOi8vc29kaXBvZGkuc291cmNlZm9yZ2UubmV0L0RURC9zb2RpcG9kaS0wLmR0ZCIgeG1sbnM6c3ZnPSJodHRwOi8vd3d3LnczLm9yZy8yMDAwL3N2ZyIgeG1sbnM9Imh0dHA6Ly93d3cudzMub3JnLzIwMDAvc3ZnIiB4bWxuczp4bGluaz0iaHR0cDovL3d3dy53My5vcmcvMTk5OS94bGluayIgdmVyc2lvbj0iMS4xIiBpZD0ic3ZnMjQzMyIgaW5rc2NhcGU6dmVyc2lvbj0iMC45Mi4zICgyNDA1NTQ2LCAyMDE4LTAzLTExKSIgc29kaXBvZGk6ZG9jbmFtZT0iZGV2aWNlX2FuZHJvaWQuc3ZnIiB4PSIwcHgiIHk9IjBweCIgdmlld0JveD0iMCAwIDI4LjY5IDU5LjIiIHN0eWxlPSJlbmFibGUtYmFja2dyb3VuZDpuZXcgMCAwIDI4LjY5IDU5LjI7IiB4bWw6c3BhY2U9InByZXNlcnZlIj4mI3hhOzxzb2RpcG9kaTpuYW1lZHZpZXcgYm9yZGVyY29sb3I9IiM2NjY2NjYiIGJvcmRlcm9wYWNpdHk9IjEiIGZpdC1tYXJnaW4tYm90dG9tPSIwIiBmaXQtbWFyZ2luLWxlZnQ9IjAiIGZpdC1tYXJnaW4tcmlnaHQ9IjAiIGZpdC1tYXJnaW4tdG9wPSIwIiBncmlkdG9sZXJhbmNlPSIxMCIgZ3VpZGV0b2xlcmFuY2U9IjEwIiBpZD0ibmFtZWR2aWV3MjQzNSIgaW5rc2NhcGU6Y3VycmVudC1sYXllcj0ic3ZnMjQzMyIgaW5rc2NhcGU6Y3g9IjE5LjEyODg2NCIgaW5rc2NhcGU6Y3k9IjM5LjQ2OTkyOCIgaW5rc2NhcGU6cGFnZW9wYWNpdHk9IjAiIGlua3NjYXBlOnBhZ2VzaGFkb3c9IjIiIGlua3NjYXBlOndpbmRvdy1oZWlnaHQ9IjEwMTciIGlua3NjYXBlOndpbmRvdy1tYXhpbWl6ZWQ9IjEiIGlua3NjYXBlOndpbmRvdy13aWR0aD0iMTkyMCIgaW5rc2NhcGU6d2luZG93LXg9Ii04IiBpbmtzY2FwZTp3aW5kb3cteT0iLTgiIGlua3NjYXBlOnpvb209IjEwLjk4NDg1MSIgb2JqZWN0dG9sZXJhbmNlPSIxMCIgcGFnZWNvbG9yPSIjZmZmZmZmIiBzaG93Z3JpZD0iZmFsc2UiPiYjeGE7CTwvc29kaXBvZGk6bmFtZWR2aWV3PiYjeGE7PGcgaWQ9ImcyNDMxIiB0cmFuc2Zvcm09InRyYW5zbGF0ZSgwLC0zLjM2MzU5OTFlLTUpIj4mI3hhOwk8dGl0bGUgaWQ9InRpdGxlMjM3NyI+UGFnZS0xPC90aXRsZT4mI3hhOwk8ZyBpZD0iZ3JvdXAzNDgxLTEiPiYjeGE7CQk8dGl0bGUgaWQ9InRpdGxlMjM3OSI+RGV2aWNlOiBBbmRyb2lkPC90aXRsZT4mI3hhOwkJPGcgaWQ9InNoYXBlMzQ4Mi0yIj4mI3hhOwkJCTx0aXRsZSBpZD0idGl0bGUyMzgxIj5TaGVldC4zNDgyPC90aXRsZT4mI3hhOwkJCTxwYXRoIGlkPSJwYXRoMjM4MyIgaW5rc2NhcGU6Y29ubmVjdG9yLWN1cnZhdHVyZT0iMCIgc3R5bGU9ImZpbGw6IzNGNTc2NTsiIGQ9Ik0yOC42OSw1NS4wNGMwLDIuMjctMS44OSw0LjE2LTQuMjIsNC4xNiAgICAgYy0yMC4yOCwwLTIwLjI4LDAtMjAuMjgsMEMxLjg1LDU5LjIsMCw1Ny4zMSwwLDU1LjA0QzAsNC4yMiwwLDQuMjIsMCw0LjIyQzAsMS44OSwxLjg1LDAsNC4xOSwwYzIwLjI4LDAsMjAuMjgsMCwyMC4yOCwwICAgICBjMi4zMywwLDQuMjIsMS44OSw0LjIyLDQuMjJWNTUuMDR6Ii8+JiN4YTsJCTwvZz4mI3hhOwkJPGcgaWQ9InNoYXBlMzQ4My00IiB0cmFuc2Zvcm09InRyYW5zbGF0ZSg3LjI3NDYzLC0zMS44MTgyKSI+JiN4YTsJCQk8dGl0bGUgaWQ9InRpdGxlMjM4NiI+U2hlZXQuMzQ4MzwvdGl0bGU+JiN4YTsJCQk8ZGVzYyBpZD0iZGVzYzIzODgiPlY8L2Rlc2M+JiN4YTsJCQk8cGF0aCBpZD0icGF0aDIzOTAiIGlua3NjYXBlOmNvbm5lY3Rvci1jdXJ2YXR1cmU9IjAiIHN0eWxlPSJmaWxsOm5vbmU7IiBkPSJNMTYuNDEsMzcuNjJIMFY1OS4yaDE2LjQxVjM3LjYyIi8+JiN4YTsJCQk8dGV4dCBpZD0idGV4dDIzOTIiIHRyYW5zZm9ybT0ibWF0cml4KDEgMCAwIDEgMy4xIDUzLjgpIiBzdHlsZT0iZmlsbDojNTA1MDUwOyBmb250LWZhbWlseTonQ2FsaWJyaSc7IGZvbnQtc2l6ZToxNy45NzQycHg7Ij5WPC90ZXh0PiYjeGE7CQk8L2c+JiN4YTsJCTxnIGlkPSJzaGFwZTM0ODQtOCIgdHJhbnNmb3JtPSJ0cmFuc2xhdGUoMS41NjA3MiwtOC4xNDgzMikiPiYjeGE7CQkJPHRpdGxlIGlkPSJ0aXRsZTIzOTUiPlNoZWV0LjM0ODQ8L3RpdGxlPiYjeGE7CQkJPHBhdGggaWQ9InBhdGgyMzk3IiBpbmtzY2FwZTpjb25uZWN0b3ItY3VydmF0dXJlPSIwIiBzdHlsZT0iZmlsbDojOEQ5RkIwOyIgZD0iTTAsMTQuNjJWNTkuMmgyNS41N1YxNC42MkgweiIvPiYjeGE7CQk8L2c+JiN4YTsJCTxnIGlkPSJzaGFwZTM0ODUtMTAiIHRyYW5zZm9ybT0idHJhbnNsYXRlKDYuMjQyODksLTU1LjQ4MDUpIj4mI3hhOwkJCTx0aXRsZSBpZD0idGl0bGUyNDAwIj5TaGVldC4zNDg1PC90aXRsZT4mI3hhOwkJCTxwYXRoIGlkPSJwYXRoMjQwMiIgaW5rc2NhcGU6Y29ubmVjdG9yLWN1cnZhdHVyZT0iMCIgc3R5bGU9ImZpbGw6IzhFOUZCMDsiIGQ9Ik0xMi45Nyw1OC42YzAsMC4zMy0wLjMsMC42LTAuNjMsMC42ICAgICBjLTExLjcsMC0xMS43LDAtMTEuNywwQzAuMyw1OS4yLDAsNTguOTMsMCw1OC42bDAsMEMwLDU4LjI3LDAuMyw1OCwwLjY0LDU4YzExLjcsMCwxMS43LDAsMTEuNywwICAgICBDMTIuNjcsNTgsMTIuOTcsNTguMjcsMTIuOTcsNTguNnoiLz4mI3hhOwkJPC9nPiYjeGE7CQk8ZyBpZD0ic2hhcGUzNDg2LTEyIiB0cmFuc2Zvcm09InRyYW5zbGF0ZSgyMS4wMDk3LC01NS4zNjA2KSI+JiN4YTsJCQk8dGl0bGUgaWQ9InRpdGxlMjQwNSI+U2hlZXQuMzQ4NjwvdGl0bGU+JiN4YTsJCQk8cGF0aCBpZD0icGF0aDI0MDciIGlua3NjYXBlOmNvbm5lY3Rvci1jdXJ2YXR1cmU9IjAiIHN0eWxlPSJmaWxsOiM4RTlGQjA7IiBkPSJNMCw1OC40OGMwLTAuNCwwLjMyLTAuNzIsMC43Mi0wLjcyICAgICBzMC43MiwwLjMyLDAuNzIsMC43MmMwLDAuMzktMC4zMiwwLjcyLTAuNzIsMC43MlMwLDU4Ljg3LDAsNTguNDh6Ii8+JiN4YTsJCTwvZz4mI3hhOwkJPGcgaWQ9InNoYXBlMzQ4Ny0xNCIgdHJhbnNmb3JtPSJ0cmFuc2xhdGUoNi4yNDI4OSwtMi4wMzcwOCkiPiYjeGE7CQkJPHRpdGxlIGlkPSJ0aXRsZTI0MTAiPlNoZWV0LjM0ODc8L3RpdGxlPiYjeGE7CQkJPHBhdGggaWQ9InBhdGgyNDEyIiBpbmtzY2FwZTpjb25uZWN0b3ItY3VydmF0dXJlPSIwIiBzdHlsZT0iZmlsbDojOEU5RkIwOyIgZD0iTTE2LjIxLDU4LjY5YzAsMC4zLTAuMiwwLjUxLTAuNDksMC41MSAgICAgYy0xNS4xOCwwLTE1LjE4LDAtMTUuMTgsMEMwLjI1LDU5LjIsMCw1OC45OSwwLDU4LjY5bDAsMGMwLTAuMzEsMC4yNS0wLjU3LDAuNTQtMC41N2MxNS4xOCwwLDE1LjE4LDAsMTUuMTgsMCAgICAgQzE2LjAxLDU4LjEyLDE2LjIxLDU4LjM4LDE2LjIxLDU4LjY5eiIvPiYjeGE7CQk8L2c+JiN4YTsJCTxnIGlkPSJzaGFwZTM0ODgtMTYiIHRyYW5zZm9ybT0idHJhbnNsYXRlKDcuOTIzNjcsLTI2Ljg0MTUpIj4mI3hhOwkJCTx0aXRsZSBpZD0idGl0bGUyNDE1Ij5TaGVldC4zNDg4PC90aXRsZT4mI3hhOwkJCTxwYXRoIGlkPSJwYXRoMjQxNyIgaW5rc2NhcGU6Y29ubmVjdG9yLWN1cnZhdHVyZT0iMCIgc3R5bGU9ImZpbGw6I0ZGRkZGRjsiIGQ9Ik0xMS45NCw1My42OGMtMC41LDAtMC45MiwwLjQyLTAuOTIsMC45NSAgICAgYzAsMy42MywwLDMuNjMsMCwzLjYzYzAsMC41MiwwLjQyLDAuOTQsMC45MiwwLjk0YzAuNDksMCwwLjkxLTAuNDIsMC45MS0wLjk0YzAtMy42MywwLTMuNjMsMC0zLjYzICAgICBDMTIuODUsNTQuMSwxMi40Myw1My42OCwxMS45NCw1My42OHogTTAuOTIsNTMuNjhDMC40Miw1My42OCwwLDU0LjEsMCw1NC42M2MwLDMuNjMsMCwzLjYzLDAsMy42M2MwLDAuNTIsMC40MiwwLjk0LDAuOTIsMC45NCAgICAgczAuOTEtMC40MiwwLjkxLTAuOTRjMC0zLjYzLDAtMy42MywwLTMuNjNDMS44Myw1NC4xLDEuNDIsNTMuNjgsMC45Miw1My42OHoiLz4mI3hhOwkJPC9nPiYjeGE7CQk8ZyBpZD0ic2hhcGUzNDg5LTE4IiB0cmFuc2Zvcm09InRyYW5zbGF0ZSgxMC4zMjQ4LC0yMi4wNDg0KSI+JiN4YTsJCQk8dGl0bGUgaWQ9InRpdGxlMjQyMCI+U2hlZXQuMzQ4OTwvdGl0bGU+JiN4YTsJCQk8cGF0aCBpZD0icGF0aDI0MjIiIGlua3NjYXBlOmNvbm5lY3Rvci1jdXJ2YXR1cmU9IjAiIHN0eWxlPSJmaWxsOiNGRkZGRkY7IiBkPSJNMCw0OC44OWMwLDYuNjQsMCw2LjY0LDAsNi42NCAgICAgYzAsMC40LDAuMzIsMC43MSwwLjcxLDAuNzFjMC44MiwwLDAuODIsMCwwLjgyLDBjMCwyLjAyLDAsMi4wMiwwLDIuMDJjMCwwLjUyLDAuNDIsMC45NCwwLjkyLDAuOTRjMC41MSwwLDAuOTMtMC40MiwwLjkzLTAuOTQgICAgIGMwLTIuMDIsMC0yLjAyLDAtMi4wMmMxLjQxLDAsMS40MSwwLDEuNDEsMGMwLDIuMDIsMCwyLjAyLDAsMi4wMmMwLDAuNTIsMC40MiwwLjk0LDAuOTMsMC45NGMwLjUsMCwwLjkyLTAuNDIsMC45Mi0wLjk0ICAgICBjMC0yLjAyLDAtMi4wMiwwLTIuMDJjMC44MiwwLDAuODIsMCwwLjgyLDBjMC40LDAsMC43LTAuMzEsMC43LTAuNzFjMC02LjY0LDAtNi42NCwwLTYuNjRIMHoiLz4mI3hhOwkJPC9nPiYjeGE7CQk8ZyBpZD0ic2hhcGUzNDkwLTIwIiB0cmFuc2Zvcm09InRyYW5zbGF0ZSgxMC4zMjQ4LC0zMi45NTI4KSI+JiN4YTsJCQk8dGl0bGUgaWQ9InRpdGxlMjQyNSI+U2hlZXQuMzQ5MDwvdGl0bGU+JiN4YTsJCQk8cGF0aCBpZD0icGF0aDI0MjciIGlua3NjYXBlOmNvbm5lY3Rvci1jdXJ2YXR1cmU9IjAiIHN0eWxlPSJmaWxsOiNGRkZGRkY7IiBkPSJNNS45NCw1Ni40MWMwLjc1LTEuMDYsMC43NS0xLjA2LDAuNzUtMS4wNiAgICAgYzAuMDQtMC4wNiwwLjAyLTAuMTUtMC4wMy0wLjE4Yy0wLjA2LTAuMDUtMC4xNC0wLjAzLTAuMTgsMC4wM0M1LjcsNTYuMzMsNS43LDU2LjMzLDUuNyw1Ni4zM0M1LjE4LDU2LjEyLDQuNjIsNTYsNC4wMiw1NiAgICAgYy0wLjU5LDAtMS4xNSwwLjEyLTEuNjYsMC4zM0MxLjU3LDU1LjIsMS41Nyw1NS4yLDEuNTcsNTUuMmMtMC4wNC0wLjA2LTAuMTItMC4wOC0wLjE4LTAuMDNjLTAuMDUsMC4wMy0wLjA3LDAuMTItMC4wMiwwLjE4ICAgICBjMC43NCwxLjA2LDAuNzQsMS4wNiwwLjc0LDEuMDZDMC45Myw1Ni45NiwwLjExLDU4LDAsNTkuMmM4LjA0LDAsOC4wNCwwLDguMDQsMEM3Ljk1LDU4LDcuMTIsNTYuOTYsNS45NCw1Ni40MXogTTIuMzMsNTguMSAgICAgYy0wLjI0LDAtMC40NS0wLjIxLTAuNDUtMC40NWMwLTAuMjIsMC4yMS0wLjQyLDAuNDUtMC40MmMwLjI1LDAsMC40NCwwLjIsMC40NCwwLjQyQzIuNzcsNTcuODksMi41OCw1OC4xLDIuMzMsNTguMXogTTUuNzgsNTguMSAgICAgYy0wLjI1LDAtMC40NC0wLjIxLTAuNDQtMC40NWMwLTAuMjIsMC4xOS0wLjQyLDAuNDQtMC40MnMwLjQ2LDAuMiwwLjQ2LDAuNDJDNi4yNCw1Ny44OSw2LjAzLDU4LjEsNS43OCw1OC4xeiIvPiYjeGE7CQk8L2c+JiN4YTsJPC9nPiYjeGE7PC9nPiYjeGE7PC9zdmc+;" parent="gOicUnMFKX1mOjjVZa7J-1" vertex="1">
          <mxGeometry x="10" y="151" width="29" height="59" as="geometry" />
        </mxCell>
        <mxCell id="DR8-hx9e1hwPXc40GI2A-4" style="rounded=0;orthogonalLoop=1;jettySize=auto;html=1;" parent="gOicUnMFKX1mOjjVZa7J-1" source="gOicUnMFKX1mOjjVZa7J-7" target="DR8-hx9e1hwPXc40GI2A-2" edge="1">
          <mxGeometry relative="1" as="geometry" />
        </mxCell>
        <mxCell id="gOicUnMFKX1mOjjVZa7J-7" value="&lt;span style=&quot;background-color: transparent; color: light-dark(rgb(0, 0, 0), rgb(255, 255, 255));&quot;&gt;Golang&lt;/span&gt;&lt;div&gt;GIN API&lt;/div&gt;" style="aspect=fixed;sketch=0;html=1;dashed=0;whitespace=wrap;verticalLabelPosition=bottom;verticalAlign=top;fillColor=#2875E2;strokeColor=#ffffff;points=[[0.005,0.63,0],[0.1,0.2,0],[0.9,0.2,0],[0.5,0,0],[0.995,0.63,0],[0.72,0.99,0],[0.5,1,0],[0.28,0.99,0]];shape=mxgraph.kubernetes.icon2;prIcon=pod" parent="gOicUnMFKX1mOjjVZa7J-1" vertex="1">
          <mxGeometry x="493.57" y="67" width="50" height="48" as="geometry" />
        </mxCell>
        <mxCell id="gOicUnMFKX1mOjjVZa7J-11" style="rounded=0;orthogonalLoop=1;jettySize=auto;html=1;entryX=0.041;entryY=0.859;entryDx=0;entryDy=0;entryPerimeter=0;" parent="gOicUnMFKX1mOjjVZa7J-1" source="gOicUnMFKX1mOjjVZa7J-13" target="lRm5DmyOPcoMYIZVMF6W-1" edge="1">
          <mxGeometry relative="1" as="geometry">
            <mxPoint x="240" y="136.85" as="targetPoint" />
          </mxGeometry>
        </mxCell>
        <mxCell id="gOicUnMFKX1mOjjVZa7J-12" value="/tracks" style="edgeLabel;html=1;align=center;verticalAlign=middle;resizable=0;points=[];" parent="gOicUnMFKX1mOjjVZa7J-11" vertex="1" connectable="0">
          <mxGeometry x="-0.0236" y="4" relative="1" as="geometry">
            <mxPoint x="16" y="12" as="offset" />
          </mxGeometry>
        </mxCell>
        <mxCell id="gOicUnMFKX1mOjjVZa7J-13" value="API Gateway&lt;br&gt;Nginx&amp;nbsp;&lt;div&gt;Replica 1&lt;/div&gt;" style="sketch=0;html=1;verticalAlign=top;labelPosition=center;verticalLabelPosition=bottom;align=center;spacingTop=-6;fontSize=11;fontStyle=1;fontColor=#999999;shape=image;aspect=fixed;imageAspect=0;image=data:image/svg+xml,PHN2ZyB4bWxucz0iaHR0cDovL3d3dy53My5vcmcvMjAwMC9zdmciIGhlaWdodD0iMzY3LjgxODMyODg1NzQyMTkiIHZpZXdCb3g9IjcuMTA1NDI3MzU3NjAxMDAyZS0xNSAwIDM2Ni40MTAxODY3Njc1NzgxIDM2Ny44MTgzMjg4NTc0MjE5IiBwcmVzZXJ2ZUFzcGVjdFJhdGlvPSJ4TWlkWU1pZCBtZWV0IiB3aWR0aD0iMzY2LjQxMDE5Njc2NzU3OTEiIHZlcnNpb249IjEuMSIgaWQ9InN2Zzk4NyIgem9vbUFuZFBhbj0ibWFnbmlmeSI+JiN4YTsgIDxwYXRoIGQ9Im0gNDguMjUxOTYsMTExLjUzOTA2IGMgLTcuNjE4NjQsMmUtNCAtMTMuNzk0NzIsNi4xNzYyOCAtMTMuNzk0OTMsMTMuNzk0OTIgMi4xZS00LDcuNjE4NjQgNi4xNzYyOSwxMy43OTQ3MiAxMy43OTQ5MywxMy43OTQ5MiBoIDE0NS4xNDY5MiB2IC0yNy41ODk4NCB6IG0gMjM4LjYwODU5LDU3LjQ1MTE3IGggNjUuNzU0NjkgYyA3LjYxODY0LC0yLjFlLTQgMTMuNzk0NzEsLTYuMTc2MjggMTMuNzk0OTIsLTEzLjc5NDkyIC0yLjFlLTQsLTcuNjE4NjQgLTYuMTc2MjgsLTEzLjc5NDcxIC0xMy43OTQ5MiwtMTMuNzk0OTIgSCAyODQuODUwNiBaIE0gMTMuNzk0OTIsMTcwLjk3NDYxIEMgNi4xNzYyODAxLDE3MC45NzQ4MiAyLjEwMDkxOWUtNCwxNzcuMTUwODkgOS4xODk5MjFlLTgsMTg0Ljc2OTUzIC04LjY5OTA4MWUtNCwxOTIuMzg4OTMgNi4xNzU1MjAxLDE5OC41NjYxOSAxMy43OTQ5MiwxOTguNTY2NCBIIDE5My4zOTg4OCBWIDE3MC45NzQ2MSBaIE0gMjg0LjMwNzgsMjI3LjU2NjQgaCA2OC4zMDc0NCBjIDcuNjE4NjQsLTIuMWUtNCAxMy43OTQ3MSwtNi4xNzYyOCAxMy43OTQ5MiwtMTMuNzk0OTIgLTIuMWUtNCwtNy42MTg2NCAtNi4xNzYyOCwtMTMuNzk0NzEgLTEzLjc5NDkyLC0xMy43OTQ5MiBoIC02NS45MjE3OCB6IG0gLTIzNi4wNTU4NCwxLjY5NzI3IGMgLTcuNjE4NjQsMmUtNCAtMTMuNzk0NzIsNi4xNzYyOCAtMTMuNzk0OTMsMTMuNzk0OTIgMi4xZS00LDcuNjE4NjQgNi4xNzYyOSwxMy43OTQ3MiAxMy43OTQ5MywxMy43OTQ5MiBIIDE5My4zOTg4OCBWIDIyOS4yNjM2NyBaIE0gMTg5LjUyMTQ5LDAgYyAtMjQuNTc0MTEsMCAtNDkuMTY3MzcsMjAuMDU1MDcgLTU5LjQzNzUsNzUuMzczMDQgaCAzMC41ODAwNyBjIDQuNjE2MzMsLTI0LjE2MjA2IDE1LjM0ODk2LC00Ny41MjE0OCAyNy44NTM1MiwtNDcuNTIxNDggMTIuMTU4OCwwIDM5LjQ1ODk4LDU3LjQ1MDQ0IDM5LjQ1ODk4LDE2MC40MTQwNiAwLDY5LjkxNTEzIC0xOS41NzgwOSwxNTIuMTE1MjQgLTQxLjE3MTg3LDE1Mi4xMTUyMyAtMTUuMjY4ODEsMmUtNSAtMjEuMjE2NjgsLTI4LjMzMzU2IC0yNS40NDMzNiwtNDYuNzE4NzQgbCAtMzAuNDE0MDYsLTAuMDY4NCBjIDQuMjIwNzQsMjAuNTQwODcgMTYuOTA3NjgsNzQuMjI0NiA1Ny43MTI4OSw3NC4yMjQ2IDUzLjQzNjcyLDAgNjguOTEyMTEsLTExMS45OTMwNSA2OC45MTIxMSwtMTgwLjQ2Mjg5IEMgMjU3LjU3MjI3LDkzLjgwMDc2IDIzNi41ODM0LDAgMTg5LjUyMTQ5LDAgWiIgc3R5bGU9ImNvbG9yOiMwMDAwMDA7b3BhY2l0eToxO2ZpbGw6IzQyODVmNDtmaWxsLW9wYWNpdHk6MTtzdHJva2UtbGluZWNhcDpyb3VuZDstaW5rc2NhcGUtc3Ryb2tlOm5vbmUiLz4mI3hhOzwvc3ZnPg==;" parent="gOicUnMFKX1mOjjVZa7J-1" vertex="1">
          <mxGeometry x="210" y="149" width="42" height="42" as="geometry" />
        </mxCell>
        <mxCell id="gOicUnMFKX1mOjjVZa7J-14" style="rounded=0;orthogonalLoop=1;jettySize=auto;html=1;entryX=0.005;entryY=0.63;entryDx=0;entryDy=0;entryPerimeter=0;" parent="gOicUnMFKX1mOjjVZa7J-1" source="gOicUnMFKX1mOjjVZa7J-13" target="gOicUnMFKX1mOjjVZa7J-33" edge="1">
          <mxGeometry relative="1" as="geometry" />
        </mxCell>
        <mxCell id="gOicUnMFKX1mOjjVZa7J-15" value="/tracks&lt;div&gt;/playlists&lt;/div&gt;" style="edgeLabel;html=1;align=center;verticalAlign=middle;resizable=0;points=[];" parent="gOicUnMFKX1mOjjVZa7J-14" vertex="1" connectable="0">
          <mxGeometry x="-0.0564" y="-4" relative="1" as="geometry">
            <mxPoint x="-16" y="11" as="offset" />
          </mxGeometry>
        </mxCell>
        <mxCell id="gOicUnMFKX1mOjjVZa7J-17" value="" style="aspect=fixed;sketch=0;html=1;dashed=0;whitespace=wrap;verticalLabelPosition=bottom;verticalAlign=top;fillColor=#2875E2;strokeColor=#ffffff;points=[[0.005,0.63,0],[0.1,0.2,0],[0.9,0.2,0],[0.5,0,0],[0.995,0.63,0],[0.72,0.99,0],[0.5,1,0],[0.28,0.99,0]];shape=mxgraph.kubernetes.icon2;kubernetesLabel=1;prIcon=pv" parent="gOicUnMFKX1mOjjVZa7J-1" vertex="1">
          <mxGeometry x="810" y="-10" width="50" height="48" as="geometry" />
        </mxCell>
        <mxCell id="gOicUnMFKX1mOjjVZa7J-22" style="rounded=0;orthogonalLoop=1;jettySize=auto;html=1;" parent="gOicUnMFKX1mOjjVZa7J-1" target="gOicUnMFKX1mOjjVZa7J-18" edge="1">
          <mxGeometry relative="1" as="geometry">
            <mxPoint x="744.76" y="136.48183688199217" as="sourcePoint" />
          </mxGeometry>
        </mxCell>
        <mxCell id="gOicUnMFKX1mOjjVZa7J-23" value="MongoDB" style="aspect=fixed;sketch=0;html=1;dashed=0;whitespace=wrap;verticalLabelPosition=bottom;verticalAlign=top;fillColor=#2875E2;strokeColor=#ffffff;points=[[0.005,0.63,0],[0.1,0.2,0],[0.9,0.2,0],[0.5,0,0],[0.995,0.63,0],[0.72,0.99,0],[0.5,1,0],[0.28,0.99,0]];shape=mxgraph.kubernetes.icon2;prIcon=pod" parent="gOicUnMFKX1mOjjVZa7J-1" vertex="1">
          <mxGeometry x="729" y="111.3" width="50" height="48" as="geometry" />
        </mxCell>
        <mxCell id="gOicUnMFKX1mOjjVZa7J-26" value="k8s cluster" style="shape=umlFrame;whiteSpace=wrap;html=1;pointerEvents=0;width=73;height=31;" parent="gOicUnMFKX1mOjjVZa7J-1" vertex="1">
          <mxGeometry x="130" y="-140" width="800" height="510" as="geometry" />
        </mxCell>
        <mxCell id="gOicUnMFKX1mOjjVZa7J-39" style="edgeStyle=orthogonalEdgeStyle;rounded=0;orthogonalLoop=1;jettySize=auto;html=1;" parent="gOicUnMFKX1mOjjVZa7J-1" source="gOicUnMFKX1mOjjVZa7J-40" target="5mahpEfX9CEQ4QkffhxW-1" edge="1">
          <mxGeometry relative="1" as="geometry">
            <mxPoint x="391.56999999999994" y="-312.25" as="targetPoint" />
          </mxGeometry>
        </mxCell>
        <mxCell id="lRm5DmyOPcoMYIZVMF6W-8" value="Create Release with Image" style="edgeLabel;html=1;align=center;verticalAlign=middle;resizable=0;points=[];" parent="gOicUnMFKX1mOjjVZa7J-39" vertex="1" connectable="0">
          <mxGeometry x="-0.0884" y="-2" relative="1" as="geometry">
            <mxPoint y="-10" as="offset" />
          </mxGeometry>
        </mxCell>
        <mxCell id="gOicUnMFKX1mOjjVZa7J-40" value="GitHub Actions CI" style="dashed=0;outlineConnect=0;html=1;align=center;labelPosition=center;verticalLabelPosition=bottom;verticalAlign=top;shape=mxgraph.weblogos.github" parent="gOicUnMFKX1mOjjVZa7J-1" vertex="1">
          <mxGeometry x="180" y="-338.75" width="50" height="53" as="geometry" />
        </mxCell>
        <mxCell id="gOicUnMFKX1mOjjVZa7J-41" style="edgeStyle=orthogonalEdgeStyle;rounded=0;orthogonalLoop=1;jettySize=auto;html=1;" parent="gOicUnMFKX1mOjjVZa7J-1" source="gOicUnMFKX1mOjjVZa7J-42" target="gOicUnMFKX1mOjjVZa7J-40" edge="1">
          <mxGeometry relative="1" as="geometry" />
        </mxCell>
        <mxCell id="gOicUnMFKX1mOjjVZa7J-42" value="S-Viper backend + seeder&lt;div&gt;&amp;nbsp;source code&lt;/div&gt;" style="sketch=0;outlineConnect=0;fontColor=#232F3E;gradientColor=none;fillColor=#232F3D;strokeColor=none;dashed=0;verticalLabelPosition=bottom;verticalAlign=top;align=center;html=1;fontSize=12;fontStyle=0;aspect=fixed;pointerEvents=1;shape=mxgraph.aws4.source_code;" parent="gOicUnMFKX1mOjjVZa7J-1" vertex="1">
          <mxGeometry x="61.03000000000001" y="-344.5" width="47.13" height="64.5" as="geometry" />
        </mxCell>
        <mxCell id="gOicUnMFKX1mOjjVZa7J-62" style="rounded=0;orthogonalLoop=1;jettySize=auto;html=1;entryX=0.995;entryY=0.63;entryDx=0;entryDy=0;entryPerimeter=0;" parent="gOicUnMFKX1mOjjVZa7J-1" source="gOicUnMFKX1mOjjVZa7J-18" target="gOicUnMFKX1mOjjVZa7J-17" edge="1">
          <mxGeometry relative="1" as="geometry" />
        </mxCell>
        <mxCell id="DR8-hx9e1hwPXc40GI2A-3" style="rounded=0;orthogonalLoop=1;jettySize=auto;html=1;entryX=0.005;entryY=0.63;entryDx=0;entryDy=0;entryPerimeter=0;" parent="gOicUnMFKX1mOjjVZa7J-1" target="gOicUnMFKX1mOjjVZa7J-23" edge="1">
          <mxGeometry relative="1" as="geometry">
            <mxPoint x="710" y="141.76186440677958" as="sourcePoint" />
          </mxGeometry>
        </mxCell>
        <mxCell id="DR8-hx9e1hwPXc40GI2A-5" style="rounded=0;orthogonalLoop=1;jettySize=auto;html=1;entryX=0.005;entryY=0.63;entryDx=0;entryDy=0;entryPerimeter=0;" parent="gOicUnMFKX1mOjjVZa7J-1" source="gOicUnMFKX1mOjjVZa7J-33" target="gOicUnMFKX1mOjjVZa7J-7" edge="1">
          <mxGeometry relative="1" as="geometry" />
        </mxCell>
        <mxCell id="5mahpEfX9CEQ4QkffhxW-0" value="DockerHub CR" style="sketch=0;html=1;verticalAlign=top;labelPosition=center;verticalLabelPosition=bottom;align=center;spacingTop=-6;fontSize=11;fontStyle=1;fontColor=#999999;shape=image;aspect=fixed;imageAspect=0;image=data:image/svg+xml,PHN2ZyB4bWxucz0iaHR0cDovL3d3dy53My5vcmcvMjAwMC9zdmciIHhtbG5zOnY9Imh0dHBzOi8vdmVjdGEuaW8vbmFubyIgd2lkdGg9IjM3Ny4xNTkzMDIxNjAyNjMwNSIgaGVpZ2h0PSIzMzYuMTYyNDk5MDAzMzEwOCIgdmlld0JveD0iLTAuMDU4MDAwMDA1NzgxNjUwNTQgMC4xMTI5OTk5OTgwMzMwNDY3MiA5OS43OTAwMDA5MTU1MjczNCA4OC45NDMwMDA3OTM0NTcwMyI+JiN4YTs8c3R5bGUgdHlwZT0idGV4dC9jc3MiPiYjeGE7CS5zdDB7ZmlsbDojNjY5ZGY2O30mI3hhOwkuc3Qxe2ZpbGw6I2FlY2JmYTt9JiN4YTsJLnN0MntmaWxsOiM0Mjg1ZjQ7fSYjeGE7PC9zdHlsZT4mI3hhOwk8cGF0aCBjbGFzcz0ic3QwIiBkPSJNNTMuMjQzIDYyLjA5VjQ3LjA5NGwxMy4yMDEgOC40MTZ2MTUuMDM4em0tMzMuMDIxIDBWNDcuMDk0bDEzLjIwMSA4LjQxNnYxNS4wMzh6bTE2LjUxMS0zMi4yODVWMTQuODFsMTMuMjAxIDguNDE2djE1LjAzOHptNjIuOTk5IDMzLjk2VjI1LjQwM2wtOS41NjItMS44ODR2NDIuMTMxem0tOTkuNzg4IDBWMjUuNDAzbDkuNTYyLTEuODg0djQyLjEzMXoiLz4mI3hhOwk8cGF0aCBjbGFzcz0ic3QxIiBkPSJNNTMuMTg1IDQ3LjA5NGwxMy4yNTgtOC4yODcgMTMuMDE2IDguMjM0LTEzLjAxNiA4LjQ2OXptLTMzLjAyMSAwbDEzLjI1OC04LjI4NyAxMy4wMTYgOC4yMzQtMTMuMDE2IDguNDY5ek0zNi42NzUgMTQuODFsMTMuMjU4LTguMjg3IDEzLjAxNiA4LjIzNC0xMy4wMTYgOC40Njl6bTYzLjA1NiA0OC45NTZ2MTIuMjE3TDc3LjAxIDg5LjA1NVY3Ny43NTJ6bTAtMzguMzYzVjEzLjE4Nkw3Ny4wMS4xMTN2MTEuMzAzek0tLjA1OCA2My43NjZ2MTIuMjE3bDIyLjcyMSAxMy4wNzNWNzcuNzUyem0wLTM4LjM2M1YxMy4xODZMMjIuNjYzLjExM3YxMS4zMDN6Ii8+JiN4YTsJPHBhdGggY2xhc3M9InN0MiIgZD0iTTY2LjQ0NCA3MC41NDdWNTUuNTFsMTMuMDE2LTguNDY5djE1LjR6bS0zMy4wMjEgMFY1NS41MWwxMy4wMTYtOC40Njl2MTUuNHptMTYuNTExLTMyLjI4NVYyMy4yMjVsMTMuMDE2LTguNDY5djE1LjR6bTQ5Ljc5OCAyNS41MDNsLTkuNTYyIDUuODh2LTMuOTk2em0wLTM4LjM2M2wtOS41NjItNS44OHYzLjk5NnpNLS4wNTggNjMuNzY2bDkuNTYyIDUuODh2LTMuOTk2em0wLTM4LjM2M2w5LjU2Mi01Ljg4djMuOTk2eiIvPiYjeGE7PC9zdmc+;" parent="gOicUnMFKX1mOjjVZa7J-1" vertex="1">
          <mxGeometry x="729" y="-220" width="42" height="42" as="geometry" />
        </mxCell>
        <mxCell id="5mahpEfX9CEQ4QkffhxW-1" value="GitHub Private CR" style="dashed=0;outlineConnect=0;html=1;align=center;labelPosition=center;verticalLabelPosition=bottom;verticalAlign=top;shape=mxgraph.weblogos.github" parent="gOicUnMFKX1mOjjVZa7J-1" vertex="1">
          <mxGeometry x="383.56999999999994" y="-338.75" width="50" height="53" as="geometry" />
        </mxCell>
        <mxCell id="5mahpEfX9CEQ4QkffhxW-3" style="rounded=0;orthogonalLoop=1;jettySize=auto;html=1;dashed=1;endArrow=oval;endFill=0;" parent="gOicUnMFKX1mOjjVZa7J-1" source="5mahpEfX9CEQ4QkffhxW-2" edge="1">
          <mxGeometry relative="1" as="geometry">
            <mxPoint x="340" y="160" as="targetPoint" />
          </mxGeometry>
        </mxCell>
        <mxCell id="5mahpEfX9CEQ4QkffhxW-2" value="http traffic" style="shape=note2;boundedLbl=1;whiteSpace=wrap;html=1;size=17;verticalAlign=top;align=center;" parent="gOicUnMFKX1mOjjVZa7J-1" vertex="1">
          <mxGeometry x="190" y="390" width="110" height="52" as="geometry" />
        </mxCell>
        <mxCell id="3s29a0c2lh7avwGN7Mvl-0" value="tracks/playlists API deployment" style="shape=umlFrame;whiteSpace=wrap;html=1;pointerEvents=0;width=86;height=45;" parent="gOicUnMFKX1mOjjVZa7J-1" vertex="1">
          <mxGeometry x="403.57" y="-5" width="240" height="340" as="geometry" />
        </mxCell>
        <mxCell id="F7d_jRN6LTZzD1IUEQfi-0" value="mongo deployment" style="shape=umlFrame;whiteSpace=wrap;html=1;pointerEvents=0;width=80;height=40;" parent="gOicUnMFKX1mOjjVZa7J-1" vertex="1">
          <mxGeometry x="689" y="60" width="151" height="140" as="geometry" />
        </mxCell>
        <mxCell id="F7d_jRN6LTZzD1IUEQfi-1" style="rounded=0;orthogonalLoop=1;jettySize=auto;html=1;dashed=1;endArrow=oval;endFill=0;" parent="gOicUnMFKX1mOjjVZa7J-1" source="5mahpEfX9CEQ4QkffhxW-2" edge="1">
          <mxGeometry relative="1" as="geometry">
            <mxPoint x="180" y="230" as="targetPoint" />
            <mxPoint x="334" y="293" as="sourcePoint" />
          </mxGeometry>
        </mxCell>
        <mxCell id="vftqZzZHb86Vtl56lEkX-0" value="Mongo secrets" style="aspect=fixed;sketch=0;html=1;dashed=0;whitespace=wrap;verticalLabelPosition=bottom;verticalAlign=top;fillColor=#2875E2;strokeColor=#ffffff;points=[[0.005,0.63,0],[0.1,0.2,0],[0.9,0.2,0],[0.5,0,0],[0.995,0.63,0],[0.72,0.99,0],[0.5,1,0],[0.28,0.99,0]];shape=mxgraph.kubernetes.icon2;kubernetesLabel=1;prIcon=secret" parent="gOicUnMFKX1mOjjVZa7J-1" vertex="1">
          <mxGeometry x="818.33" y="170" width="41.67" height="40" as="geometry" />
        </mxCell>
        <mxCell id="YUPyZTRM6Zf8XevU5Wh4-0" value="sviper Namespace" style="shape=umlFrame;whiteSpace=wrap;html=1;pointerEvents=0;width=90;height=30;" parent="gOicUnMFKX1mOjjVZa7J-1" vertex="1">
          <mxGeometry x="150" y="-60" width="750" height="410" as="geometry" />
        </mxCell>
        <mxCell id="DR8-hx9e1hwPXc40GI2A-7" style="rounded=0;orthogonalLoop=1;jettySize=auto;html=1;" parent="gOicUnMFKX1mOjjVZa7J-1" source="gOicUnMFKX1mOjjVZa7J-7" target="5mahpEfX9CEQ4QkffhxW-1" edge="1">
          <mxGeometry relative="1" as="geometry">
            <mxPoint x="553.6975697569758" y="-86.75" as="targetPoint" />
          </mxGeometry>
        </mxCell>
        <mxCell id="DR8-hx9e1hwPXc40GI2A-6" style="rounded=0;orthogonalLoop=1;jettySize=auto;html=1;exitX=0.1;exitY=0.2;exitDx=0;exitDy=0;exitPerimeter=0;entryX=0.5;entryY=1;entryDx=0;entryDy=0;" parent="gOicUnMFKX1mOjjVZa7J-1" source="gOicUnMFKX1mOjjVZa7J-23" target="5mahpEfX9CEQ4QkffhxW-0" edge="1">
          <mxGeometry relative="1" as="geometry">
            <mxPoint x="565.2435921777103" y="-86.75" as="targetPoint" />
          </mxGeometry>
        </mxCell>
        <mxCell id="YUPyZTRM6Zf8XevU5Wh4-2" value="nginx&lt;div&gt;&amp;nbsp;Deployment&lt;/div&gt;" style="shape=umlFrame;whiteSpace=wrap;html=1;pointerEvents=0;width=80;height=40;" parent="gOicUnMFKX1mOjjVZa7J-1" vertex="1">
          <mxGeometry x="160" width="200" height="330" as="geometry" />
        </mxCell>
        <mxCell id="YUPyZTRM6Zf8XevU5Wh4-3" value="" style="aspect=fixed;sketch=0;html=1;dashed=0;whitespace=wrap;verticalLabelPosition=bottom;verticalAlign=top;fillColor=#2875E2;strokeColor=#ffffff;points=[[0.005,0.63,0],[0.1,0.2,0],[0.9,0.2,0],[0.5,0,0],[0.995,0.63,0],[0.72,0.99,0],[0.5,1,0],[0.28,0.99,0]];shape=mxgraph.kubernetes.icon2;kubernetesLabel=1;prIcon=pv" parent="gOicUnMFKX1mOjjVZa7J-1" vertex="1">
          <mxGeometry x="290" y="10" width="50" height="48" as="geometry" />
        </mxCell>
        <mxCell id="YUPyZTRM6Zf8XevU5Wh4-6" style="rounded=0;orthogonalLoop=1;jettySize=auto;html=1;" parent="gOicUnMFKX1mOjjVZa7J-1" source="YUPyZTRM6Zf8XevU5Wh4-4" target="YUPyZTRM6Zf8XevU5Wh4-3" edge="1">
          <mxGeometry relative="1" as="geometry" />
        </mxCell>
        <mxCell id="YUPyZTRM6Zf8XevU5Wh4-4" value="Nginx PVC" style="aspect=fixed;sketch=0;html=1;dashed=0;whitespace=wrap;verticalLabelPosition=bottom;verticalAlign=top;fillColor=#2875E2;strokeColor=#ffffff;points=[[0.005,0.63,0],[0.1,0.2,0],[0.9,0.2,0],[0.5,0,0],[0.995,0.63,0],[0.72,0.99,0],[0.5,1,0],[0.28,0.99,0]];shape=mxgraph.kubernetes.icon2;kubernetesLabel=1;prIcon=pvc" parent="gOicUnMFKX1mOjjVZa7J-1" vertex="1">
          <mxGeometry x="190" y="52" width="50" height="48" as="geometry" />
        </mxCell>
        <mxCell id="YUPyZTRM6Zf8XevU5Wh4-5" style="rounded=0;orthogonalLoop=1;jettySize=auto;html=1;entryX=0.63;entryY=0.594;entryDx=0;entryDy=0;entryPerimeter=0;" parent="gOicUnMFKX1mOjjVZa7J-1" source="lRm5DmyOPcoMYIZVMF6W-1" target="YUPyZTRM6Zf8XevU5Wh4-4" edge="1">
          <mxGeometry relative="1" as="geometry">
            <mxPoint x="260" y="152.83737226277367" as="sourcePoint" />
          </mxGeometry>
        </mxCell>
        <mxCell id="lRm5DmyOPcoMYIZVMF6W-9" style="rounded=0;orthogonalLoop=1;jettySize=auto;html=1;entryX=0;entryY=0.5;entryDx=0;entryDy=0;" parent="gOicUnMFKX1mOjjVZa7J-1" source="lRm5DmyOPcoMYIZVMF6W-0" target="gOicUnMFKX1mOjjVZa7J-13" edge="1">
          <mxGeometry relative="1" as="geometry" />
        </mxCell>
        <mxCell id="lRm5DmyOPcoMYIZVMF6W-11" style="rounded=0;orthogonalLoop=1;jettySize=auto;html=1;entryX=0;entryY=0.5;entryDx=0;entryDy=0;" parent="gOicUnMFKX1mOjjVZa7J-1" source="lRm5DmyOPcoMYIZVMF6W-0" target="lRm5DmyOPcoMYIZVMF6W-10" edge="1">
          <mxGeometry relative="1" as="geometry" />
        </mxCell>
        <mxCell id="lRm5DmyOPcoMYIZVMF6W-0" value="Public IP&amp;nbsp;&lt;div&gt;(Load Balancer)&lt;/div&gt;" style="aspect=fixed;sketch=0;html=1;dashed=0;whitespace=wrap;verticalLabelPosition=bottom;verticalAlign=top;fillColor=#2875E2;strokeColor=#ffffff;points=[[0.005,0.63,0],[0.1,0.2,0],[0.9,0.2,0],[0.5,0,0],[0.995,0.63,0],[0.72,0.99,0],[0.5,1,0],[0.28,0.99,0]];shape=mxgraph.kubernetes.icon2;kubernetesLabel=1;prIcon=svc" parent="gOicUnMFKX1mOjjVZa7J-1" vertex="1">
          <mxGeometry x="100" y="151" width="50" height="48" as="geometry" />
        </mxCell>
        <mxCell id="lRm5DmyOPcoMYIZVMF6W-1" value="static mp3&lt;div&gt;files&lt;/div&gt;" style="shape=datastore;whiteSpace=wrap;html=1;" parent="gOicUnMFKX1mOjjVZa7J-1" vertex="1">
          <mxGeometry x="280" y="69.3" width="70" height="60" as="geometry" />
        </mxCell>
        <mxCell id="lRm5DmyOPcoMYIZVMF6W-3" value="Worker&amp;nbsp;" style="aspect=fixed;sketch=0;html=1;dashed=0;whitespace=wrap;verticalLabelPosition=bottom;verticalAlign=top;fillColor=#2875E2;strokeColor=#ffffff;points=[[0.005,0.63,0],[0.1,0.2,0],[0.9,0.2,0],[0.5,0,0],[0.995,0.63,0],[0.72,0.99,0],[0.5,1,0],[0.28,0.99,0]];shape=mxgraph.kubernetes.icon2;kubernetesLabel=1;prIcon=node" parent="gOicUnMFKX1mOjjVZa7J-1" vertex="1">
          <mxGeometry x="290" y="-140" width="54.17" height="52" as="geometry" />
        </mxCell>
        <mxCell id="WrLINpsRZo3zSWrrOjiG-6" style="edgeStyle=orthogonalEdgeStyle;rounded=0;orthogonalLoop=1;jettySize=auto;html=1;" parent="gOicUnMFKX1mOjjVZa7J-1" source="lRm5DmyOPcoMYIZVMF6W-5" edge="1">
          <mxGeometry relative="1" as="geometry">
            <mxPoint x="200" y="-195.5" as="targetPoint" />
          </mxGeometry>
        </mxCell>
        <mxCell id="WrLINpsRZo3zSWrrOjiG-8" value="output" style="edgeLabel;html=1;align=center;verticalAlign=middle;resizable=0;points=[];" parent="WrLINpsRZo3zSWrrOjiG-6" vertex="1" connectable="0">
          <mxGeometry x="0.0928" y="1" relative="1" as="geometry">
            <mxPoint x="-7" y="-11" as="offset" />
          </mxGeometry>
        </mxCell>
        <mxCell id="lRm5DmyOPcoMYIZVMF6W-5" value="" style="shape=image;verticalLabelPosition=bottom;labelBackgroundColor=default;verticalAlign=top;aspect=fixed;imageAspect=0;image=data:image/png,iVBORw0KGgoAAAANSUhEUgAAAqcAAAKnCAYAAAC75eQEAAAQAElEQVR4AezdBXxcVdrH8f9E27Spuwt1S+o4dBdYdIs7bVmkxV0XKG6LFIpDW9xlcXuBRZa6u7u7JI2/9wxtty2RyWTm6o9Phkxm7j3neb5nSB7uPffcBPEPAggggAACCCCAAAIuEXBlcVpUVJRhPQZajyetx0jrMcl6LLIem6wHXwgggIBHBAgTAQQQcI2AqaFMLfWjFdHH1mOo9ehvPTJcUpPuCcMVxakFc4T1uMt6GLBNVnSTrMdI63G19RhoPQxcC+t7DevBFwIIIIAAAggggED5BEwNZWqpI6zd+luPu6zHx9bDHAC0SrAiU4OZg4Lmfetl574iLk5jHWJRUZEpSA2CKUZ/tNofaj0MiMGznvKFAAIIIIAAAgggYJOAqcHMQUFTpJojrObMtXnNpu7/142txalVkNawHuYI6e6C1CBQjP5vPHiGAALBFCBrBBBAwE0C5girOXO9u1A1Uy3Na7bEaEtxahWk4aLUymiR9TBHSClILQi+EEAAAQQQQAABlwuYotRMtdx9NNX8HNeQY1+c7hUuReleGDxFAAEEEEAAAQS8LWCOppoi9QmrxotbkRq34tQK2pyy50iptz+ERI8AAi4TIBwEEEDABQLXWDGYU/6mWLWexvYr5sWpVZS2sB7mAqcnrVA5fW8h8IUAAggggAACCPhMwBw5NRdNmSLVPI9ZejEtTq2i1BwtNctARXB1V8xyoCEEEEAAAQQQQAABZwRMzWeWozJHU2MSQUyKU6soNRc8PWFFxNFSC4EvBBBAwHEBAkAAAQTsEzBnys08VFMLVrjXChenVmFqDuX+ZEUSs4rZaosvBBBAAAEEEEAAAW8JXGPVheaCKVMbRh15hYpTKwDTuZlf2i3qCMrekS0QQAABBBBAAAEEvCEQrg131YhRRRx1cWp1am4pagpTE0RUnbMTAggggIDTAvSPAAIIxFzA1IbmQilTK5a78aiKUwrTcjuzAwIIIIAAAgggECSBqAvUchenVmFqOvvY0jWTX61v7vkiEgQQQAABBBBAAAHXCJha8eNdtWPEQZWrON3VOKfyI+ZlQwQQQMA3AiSCAAIIRCNgDmqaU/zme0T7l6s4tVqkMLUQ+EIAAQQQQAABBBCIWMAUpuYIqjmSWuZOERen1lFTs3aVabzMRl2/AQEigAACCCCAAAII2ClgLo66K5IOIypOrcLU3PmJdUwjEWUbBBBAIOACpI8AAgiUIGDWQS2zniyzOLUKU3O0dGgJnfAyAggggAACCCCAAAKRCty1q7Yscfsyi1Nrz5HWI6I5AtZ2PvsiHQQQQAABBBBAAIEYCpia0tSWJTZZanFqVbYDrT2PsB58IYAAAgggEFsBWkMAgaAKHGHVmCWe3i+xOLV2MqfzI5q4GlRZ8kYAAQQQQAABBBCISsCc3jdHUf+0c4nFqbWluQjKFKjWU77KEOBtBBBAAAEEEEAAgcgFTGFa7NHTYovTXUdNi90h8j7ZEgEEEEAAgVgI0AYCCPhU4Gqr5jRF6j7pFVucWltwdb6FwBcCCCCAAAIIIIBA3ARMYfqng6F/Kk6tCtacyh8QtzAC3jDpI4AAAggggAACCOwR+NPR0z8Vp9amXJ1vIfCFAAIIIOA5AQJGAAHvCfzp6GlxxSlX6HtvYIkYAQQQQAABBBDwqoC5CH9P7PsUp9YpfXPU1JzW37MBTxwSoFsEEEAAAQQQQCAYAjV21aDhbPcpTq1XzKL71je+EEAAAQQQ8K8AmSGAgOsE+u+OaP/i9PDdb/AdAQQQQAABBBBAAAGbBPZcjL+nON11OJVT+jaNQOy6oSUEEEAAAQQQQMDzAntO7e8pTq2U9hxOtZ7zhQACCCCAAAIIIICAnQLm2iftXZx2s7N3+kIAAQQQQAABBBBAYC+B8PTSvYvTcLW61wY89ZcA2SCAAAIIIIAAAm4WyDDBhYvToqKi8A/mBR4IIIAAAgggUF4BtkcAgRgImHmnGeHi1GqMC6EsBL4QQAABBBBAAAEEHBXYU5xy5NTRcXBX50SDAAIIIIAAAgg4JEBx6hA83SKAAAIIBFOArBFAoHSB6rtP61cvfTveRQABBBBAAAEEEEAg7gJ7jpwy5zTu1j7sgJQQQAABBBBAAIHYCtTYfeS0RmzbpTUEEEAAAQQQqIgA+yIQUAGK04AOPGkjgAACCCCAAAJuFNhTnLoxOGLyjQCJIIAAAggggAACkQnsPq0f2dZshQACCCCAAALuEiAaBHwmQHHqswElHQQQQAABBBBAwMsCFKdeHj3/xU5GCCCAAAIIIBBwAYrTgH8ASB8BBBBAICgC5ImANwQoTr0xTkSJAAIIIIAAAggEQoDiNBDD7L8kyQgBBBBAAAEE/ClAcerPcSUrBBBAAAEEohVgPwQcFaA4dZSfzhFAAAEEEEAAAQT2FqA43VuD5/4TICMEEEAAAQQQ8JQAxamnhotgEUAAAQQQcI8AkSAQDwGK03io0iYCCCCAAAIIIIBAVAIUp1GxsZP/BMgIAQQQQAABBNwgQHHqhlEgBgQQQAABBPwsQG4IlEOA4rQcWGyKAAIIIIAAAgggEF8BitP4+tK6/wTICAEEEEAAAQTiKEBxGkdc0/S8cRvMNx4IIIAAAgggUKYAGyAgUZzG+VPw6i2T9frtU7RhRXace6J5BBBAAAEEEEDA+wIUpzaM4ZzR6zVs0O/6+oV52rk934Ye6cINAsSAAAIIIIAAAuUXoDgtv1lUexQWFOnX95bqyYG/a/yXK2V+jqohdkIAAQQQQAABBHwsQHFq8+Bu35SrTx6bpeeGjNWCCRtVVFhkcwR0hwACCCCAAAIIuFeA4tShsVm1YLtG3jRJr902Ravmb3MoCrp1hQBBIIAAAggggMAeAYrTPRTOPDFX8z9/+Th9MXyusrbkORMEvSKAAAIIIOBTAdLyngDFqQvGrCC/SL9/vExPDvpdv3+0TPl5nOp3wbAQAgIIIIAAAgg4IEBx6gB6SV2aI6dfPDNXL1w+VvPHb1RREUVqSVbBfJ2sEUAAAQQQ8L8AxakLx9jMRx118yS9dddUrV+a5cIICQkBBBBAAAGfCZCOawQoTl0zFH8OZNZv6/X8lePCS1CxPuqffXgFAQQQQAABBPwnQHHq8jE1Rel3Ixbo1dsma9Zv61SYz6l+lw+ZG8IjBgQQQAABBDwrQHHqgaEryCvUshlb9MFDM/X+gzO0ct42MR3VAwNHiAgggAACPhQgpXgLUJzGWziG7edk5WvaT2v0mnUU9XvraOq2DTkxbJ2mEEAAAQQQQAAB5wUoTp0fg3JHsH1jrn5+e4lGXD9J475YodydheVugx0QMAI8EEAAAQQQcJsAxanbRiTCeMwyU+uW7dAXT8/V67dPCt8KtbCA+agR8rEZAggggAAC8Rag/SgFKE6jhHPLbvl5hVo0ebPeunuaPnp0ltYs3sF8VLcMDnEggAACCCCAQLkFKE7LTebOHXJ25Gvyd6v0ynUT9PUL82RO/bszUqLypABBI4AAAgggYJMAxalN0HZ1Y+4y9dv7S/XskLEa8+ly5ecyH9Uue/pBAAEEEEAgGgH22VeA4nRfD9/8tHV9jj5/aq5evnaCFkzcqKJC5qP6ZnBJBAEEEEAAAR8LUJz6eHDNRVPLZ2/Vq7dM1vsPzNCG5dwK1cfD7ZLUCAMBBBBAAIGKCVCcVszPE3ubq/in/rgmfKr/+5ELlL013xNxEyQCCCCAAAII7CUQkKcUpwEZaJNmTlaBfnpjsZ69bGz44qmCfE71GxceCCCAAAIIIOAeAYpT94yFbZFsWpWtDx+epZE3TtTiaZtlTv/b1jkdIfCHAP9GAAEEEECgWAGK02JZ/P+iKUgXT92sUTdO0sf/mqVNq3b6P2kyRAABBBBAIBAC3k6S4tTb41fh6M0i/hO/XqXnLh+rn99erNzsggq3SQMIIIAAAggggEC0AhSn0cr5bD+zPuq3Ly/Qc5eN1fSf16qQ+ag+G2HvpkPkCCCAAALBEqA4DdZ4l5ntuqVZevee6Xr99ilaNW+7irhmqkwzNkAAAQQQQMCjAq4Mm+LUlcPibFBmPuq88Rv0wtXj9dmw2dq2IcfZgOgdAQQQQAABBAIjQHEamKEuf6L5OQUa+9kKPTN4rP5v1EJlb80rfyPsgYBdAvSDAAIIIOALAYpTXwxjfJPYvjFXP76+SM9fOV6Tv1+l/NzC+HZI6wgggAACCCDgKgE7g6E4tVPb431tWJ6ljx6epQ8emqEVc7cyH9Xj40n4CCCAAAIIuFGA4tSNo+LimAoLizTj57V6557p4aOpW9YwH9XFw0VoxQrwIgIIIICAmwUoTt08Oi6NrahIMneZ+umNRXpz6FRN/GaVdm7Pd2m0hIUAAggggAACtgnEoCOK0xggBrWJwoIirbRO7382bI7ef3C6FkzcKPNaUD3IGwEEEEAAAQQqLkBxWnHDwLeQl1OgOaM36L37p+vzp+dq9cLtgTcBwBcCJIEAAggg4IAAxakD6H7tcsfmPI37fLneuXuqfnlnibauz/VrquSFAAIIIIAAAhUSKHlnitOSbXgnCgEzH3X98mx9P3KB3raK1Kk/rlFudkEULbELAggggAACCARRgOI0iKNuQ84F+UVaNnOL/v34bH306EwtmrKJ+ag2uNOFMwL0igACCCAQOwGK09hZ0lIxAjlZ+Zr+n7V6/4EZ+vqF+Vq/PKuYrXgJAQQQQAABBBD4Q2C/4vSPF/k3ArEW2Lo+R79/tExvD52m/364TDs25cW6C9pDAAEEEEAAAR8IUJz6YBC9kkJRUZHWLNqub16cr3fvm6ZpP67hVqheGTzijI0ArSCAAAIIlClAcVomERvEWqAgv1ALJ2/S+w/O0Jt3TtXSGVu4FWqskWkPAQQQQAABjwpEW5x6NF3CdpOAWbB/3rgNevWWyfr8qTnhu065KT5iQQABBBBAAAH7BShO7Tenx/0EzEVTYz5drpevm6jfPliq7G3cCnU/In4MnAAJI4AAAsEVoDgN7ti7LvMta3fq6+fnW0dSJ2nWb+uYj+q6ESIgBBBAAAEE4i8Q9+I0/inQg58EzEVTy2dv1bv3TQ8/Vs7b5qf0yAUBBBBAAAEEyhCgOC0DiLedEcjPLQwfPR1548Tw0dQta3KcCYReEXC3ANEhgAACvhOgOPXdkPorITP/9Nf3l+jl6ydo3OcrlJPFrVD9NcJkgwACCCCAwL4C7ilO942LnxDYR2DTqmx9+uSc8HzU+eM3ylzpv88G/IAAAggggAACvhCgOPXFMAYjCTMf1ayJ+uadU/XhIzO1ZuH2YCROlgjEQIAmEEAAAa8IUJx6ZaSIc49AXk6Bpny/WiNunKTvRyzU9o25e97jCQIIIIAAAgh4W8CDxam3wYk+dgI7NufqpzcXaeRNEzVnzHoV5BfFrnFaQgABBBBAAAFHBChOHWGn01gKrFm0Q29Zp/o//tcsrVuSxa1QY4lLW8ETIGMEvPHgVQAAEABJREFUEEDAYQGKU4cHgO5jI2COmk7+bpWeu3ysvnxmjrauZ+mp2MjSCgIIIIAAAvYK+Lk4tVeS3lwhkJtdoN8/Xq7nrxinMf9eLvOzKwIjCAQQQAABBBCISIDiNCImNvKawNZ1OfrsqTkacf0EzRu7gaWnvDaAxOsBAUJEAAEE4iNAcRofV1p1icDyOdv0xh1T9d79M7R28Q7mo7pkXAgDAQQQQACBkgQoTiWVhMPr/hAoyC/U9P+s0YtXj9e3L8/Xjs15/kiMLBBAAAEEEPChAMWpDweVlIoX2Lk9X7+8s0QvXDVOE75eqbydhcVvyKsIIBBLAdpCAAEEyiVAcVouLjb2g8DGFdn65F+z9eotE7V46mYVFbI+qh/GlRwQQAABBPwhQHFannFkW98IFBUVafG0LRp18yR9+PBMbbAKVt8kRyIIIIAAAgh4WIDi1MODR+gVF8jPLdTk71frhSvG6ac3Fit7W37FG6UFBBCISoCdEEAAASNAcWoUeAReIGtrnr4fuSA8H3Xqj2uUn8ep/sB/KABAAAEEEHBEgOI0Luw06lWB9Uuz9P79M/TmHVO0bNYWmdP/Xs2FuBFAAAEEEPCiAMWpF0eNmOMqYArSeeM2aMT1k/Tpk3O0edXOuPZH4wggUE4BNkcAAV8LUJz6enhJriICeTkFGvf5Cj0zZKx1yn+hsrawPmpFPNkXAQQQQACBSAQoTiNRit82tOwBgextefrpjUV67vJxmvjNKhXmMx/VA8NGiAgggAACHhWgOPXowBG2/QKbVmXr40dn6ZUbJmrxtE0qoka1fxDoEYFyCbAxAgh4UYDi1IujRsyOCZj5qEumbdaoGydbhepMbVrNfFTHBoOOEUAAAQR8KUBx6pFhJUx3CeTnFYZP8T87eIx+enOxcrIK3BUg0SCAAAIIIOBRAYpTjw4cYbtDwCza//2IBXr+8nGa/p81KizgXL87RoYoECiXABsjgICLBChOXTQYhOJdgXVLd+i9+2bo1Vsna/mcrcxH9e5QEjkCCCCAgMMCFKcOD0DMu6dBxwQKC4u0YMJGvXLdRH3z4nzlZnOq37HBoGMEEEAAAc8KUJx6dugI3K0CeTsL9Ot7S/TckHGa+ctajqK6daCIC4EoBNgFAQTiL0BxGn9jegiowLplO/T23dP16s2TtGr+9oAqkDYCCCCAAALlE6A4LZ+Xj7YmFTsEzNJT861T/S9cOU6fD5+rHZu4y5Qd7vSBAAIIIOBdAYpT744dkXtIID+3UKM/XqanLvpdv3+0TOZnD4VPqAggUF4BtkcAgagFKE6jpmNHBMovsGNznr54Zq6GXzJG035ao6JClp4qvyJ7IIAAAgj4WYDi1M+jG5vcaCUOAuuXZem9+6aHr+xfPntLHHqgSQQQQAABBLwpQHHqzXEjah8IFFkHTRdP26yXrp6oTx6frS3rcnyQFSkggED5BNgaAQT2F6A43V+EnxGwWaAgv1Djv1ihZ6xT/b99sEz5OYU2R0B3CCCAAAIIuEeA4tQ9Y+H5SEigYgJZW/P01XNzNfzSMZr527qKNcbeCCCAAAIIeFSA4tSjA0fY/hUw81HfvmuaXrt1stYs3uHfRMkMAQTKI8C2CARGgOI0MENNol4SMOujzh27Qc8NHqvPn56rrM2sj+ql8SNWBBBAAIHoBShOo7djz2gF2C9igfy8Qo3+ZJmeuni0xvx7hQryiyLelw0RQAABBBDwogDFqRdHjZgDJ7B9Y64+e2q2nrt8rOaN2xC4/EkYAQQiF2BLBLwuQHHq9REk/kAJrJ6/Xa/fPkVv3TVN65dlByp3kkUAAQQQCIYAxWkwxtmjWRJ2cQKFBUWa+etaPTtkjL5/ZYFyduQXtxmvIYAAAggg4EkBilNPDhtBIyDlZhfop7cW66mLRmvCVyu5FSofCgQQKJ8AWyPgUgGKU5cODGEhEKnAlrU5+uSxWXr52gksPRUpGtshgAACCLhWgOLUtUNDYOUQCPymRUXSirnbtGLO1sBbAIAAAggg4G0BilNvjx/RI4AAAgggEGcBmkfAXgGKU3u96Q0BBBBAAAEEEECgFAGK01JweMt/AmSEAAIIIIAAAu4WoDh19/gQHQIIIIAAAl4RIE4EYiJAcRoTRhpBAAEEEEAAAQQQiIUAxWksFGnDfwJkhAACCCCAAAKOCFCcOsJOpwgggAACCARXgMwRKE2A4rQ0Hd5DAAEEEEAAAQQQsFWA4tRWbjrznwAZIYAAAggggEAsBShOY6lJWwj4QOCHVxdp2cwtPsiEFBBAwPMCLktg64YcffHMXJdF5b9wKE79N6ZkhECFBBZN2ahRN0/Wp0/M1pa1OyvUFjsjgAACfhDIzS7Q6E+W68Urx2v0x8v9kJKrc6A4dfXwEJyPBDyVSk5WvsZ+vkLPXzFOP7y2UNusowWeSoBgEUAAgRgJzB27QS9fN0FfPjtXm9fsVFFRUYxappmSBChOS5LhdQQQsIrSXP342mKNvHGSJny1Urk5hagggAACLhSIfUhrl2Tp7aHTrMdUrZy7TYUFFKWxVy6+RYrT4l14FQEEdgmYowRrl+zQZ0/N0eu3TdKCCRv5Jb3Lhm8IIOA/gQ0rsvXlc/P00jXjNOOXtcrjf8ptH2SKU9vJ6RCB0gXc+m5+bqEWTd6st+6epn8/OUemYOXslltHi7gQQKC8Atnb8vXre0utM0UT9fuHy5S9Nb+8TbB9jAQoTmMESTMIBEUgZ0e+Jlqn+F+9ZZJ+fnuxsrbkBSV18kQAAe8L/CmDgvwizfjPGpnfad++soB5pX8Ssv8FilP7zekRAc8LmFP9W9bm6P9GLdSIGyZqyv+tljmy6vnESAABBAIjYM78LJ+9Ve9YZ4M+eGSWzPPC/MLA5O/mRClO3Tw6xIZAaQIueM9cILB64XZ98tgsvX33VC2ZvpkrWV0wLoSAAAKlC2y2/uf66+fn6fV/TtGs/65T3s6C0nfgXVsFKE5t5aYzBPwpYC4YmDN6g964Y4o+f2quzAUF/syUrBBAwMsCuVkF4XVKR900Uf/9cJl2bMotMR3ecE6A4tQ5e3pGwHcC5gKCsZ+t0KibJ+nX95dq5zYuKPDdIJMQAh4UMGd55o7ZoFG3TNJXL8zT+mVZnOVx8ThSnLp4cAgNgdgI2NuKmY+6aVW2vn15gUZafwhm/rJO5oIDe6OgNwQQQMASKJJWL9iuDx6aqXfvn66lM7aoII95pZaMq78oTl09PASHgHcFzIUFK2Zv1QcPz9B71h8Fc7GBKVy9mxGRI4CAlwTMne2+H7kgfBX+1B9Wy6w0Epf4aTTmAhSnMSelQQQQ2FsgN7tAM35eqzdun6xvX1qgLety9n6b5wgggEBMBfJ2FmrCV6tk7mz389tLtG0j80pjCmxDYxSnNiDTBQIeEYhrmNs352nPAtcfLZMpWuPaIY0jgECgBMy80oWTN+nNO6fos6dmh28UUlhondcPlII/kqU49cc4kgUCnhAwp/XNhQhfPDNXI66foMVTN3ErVE+MHEEi4G4BczOQz4fP1Vt3TdX8CRtduu6yuw3dFB3FqZtGg1gQCJDA8jnb9MYdU/X503N2XTkboORJFQEEYiJgVgiZ8sNqvXjVeI37bIV2bmeFkJjAOtwIxanDA0D3CHhRIFYxmz8ku5ee+u2DpcqyTv3Hqm3aQQAB/wrk5xVp9u/r9fo/J+vDh2Zq/fIsloby0XBTnPpoMEkFAa8KbF6zU9++OF+v3jZZ039eK7Oov1dzIW4EEIifgJkatHLedn34yEy9d9/08NJQZq5p/Hp0pOXAd0pxGviPAAAIuEPAXLiwYs7W8FGQ9x+YrmWztjAf1R1DQxQIuELArPTx/YgFevWWiZpmncrP5ZajrhiXeARBcRoPVdpEAIE/BKL4d15OgWb+uk6v3z5F3740X5tW74yiFXZBAAG/CJj1Scd/ucIqSifp57eXagfTf/wytCXmQXFaIg1vIICAkwLm6lszD3XUTZM0+t/Llc2tUJ0cDvpGwHYBc2e5+eM36u27p+nTYXO1dvEO5pXuNwp+/ZHi1K8jS14I+ECgqEjasCJLXz4zN3zhw5zR62UuhPBBaqSAAAIlCJj/7tcs3KFPn5htFaZ/LA1l7jhXwua87EMBilMfDiopIeA9gdIjNhc8LJ2+Re/eO10fPjxDqxZs4whK6WS8i4AnBbZvzNV/3lyk126bpAlfr1ROVoEn8yDoiglQnFbMj70RQMBGAXMBxLQf1+jVWybr/0Yt5FaoNtrTFQLxFMjbWaDJ363Wq7dOsv7bXsR/27HG9lh7FKceGzDCRQAB6Y+jK4v16i2TZC6UyMli4W0+Fwh4UcCcFVk8dbPeuWeaPnlsllbN385ZES8OZIxjpjiNMSjNIYBAXAX2NG7mpZkLJD4bNldvD52m2b+tU242pwD3APEEARcLmP9+N6zI1pfPztUbd0zRnDEblJ9X6OKICc1OAYpTO7XpCwEEYi5QkF+o+RM26v2HZurjf82SOQpj/vDFvCMaRACBmAhkbc7Tb+8v0aibJmr0J8u55WhMVGPViDvaoTh1xzgQBQIIVFDAnNqf9tMavffAdH31/Lzw7Qwr2CS7I4BADAXMnd9m/rJOr90+Wd++tIA1jGNo67emKE79NqLkg0DABbauy9HvHy6TOdU/2joqY9ZLDTgJ6SPgqEBRYZEWT9us126dpPcfnKHls7fK3BHO0aDo3NUCFKeuHh6CQwCBaASKrPP6axZt19fWEVRzocWs/65Tfi7z2aKxZB8EKiKwcdVOffzYbOsU/iQtmrJZ5g5wFWmPfV0jENdAKE7jykvjCCDgpIC5wGLh5E366JFZ+uTx2eEjNlbd6mRI9I1AIAR27sjXL+8s0fOXj9XEr1fyP4eBGPXYJUlxGjtLWkIAAZcKZG/L0+TvVumde6fp+xELtGnNXvfrd2nMhIWAFwXy84o04+e1evGq8frmpfliWo0XR9H5mClOnR8DIkAAAZsENq/eqV/eXaK375qq8V+tVPY21ke1iZ5ufC5gptKsmLtNb905Re/cM11rF+/wecakF6lANNtRnEajxj4IIOBZAbPo98p52/TF03P1/gPTNW/cBhXkF3k2HwJHwGmBLdaZiC+Gz9XL10zQ3LEbWETf6QHxQf8Upz4YRFJAAIHyC5gLM8wf0g8enKFPh83W6oXby2iEtxFAYG8Bs3zb7x8t1/NXjg+vV2r+m9r7fZ4jEK0AxWm0cuyHAAK+ENixJU8TrVP8bw+dqjGfLJP5g+uLxEgCgTgJFFpnGpbM2KLXbpusL56Zo20bcuLUE80GSmCvZClO98LgKQIIBFPAXMFvbqX4xbPz9M6907V4ymZO9Qfzo0DWpQiY/042rszWty/P1+u3T9aSaVtK2Zq3EIhegOI0ejv2RAABnwmY+ajzxm7Qa/+coq+em6v1y7KimT/nMxXSQUDK3pqvsZ8u08ibJunX95dqJxcT8ks7pHcAABAASURBVLGIowDFaRxxaRoBBLwpkJuVH55D9+LVE/TdiIXavinXm4kQNQIVFDC3HJ0zeoNev3OKPn96njatyq5gi+yOQNkCpRenZe/PFggggIBvBbK25OrntxbrxavHa+I3q5SbXeDbXEkMgb0FzFmE1Qu36eN/zZSZj7102mbOIuwNxPO4ClCcxpWXxhFAwA8CG1dk66NHZur126do8dTNMheExCIv2kDAbQJmXqm5ScXnT8/RiBsmaeoPa5SfV+i2MInH5wIUpz4fYNJDAIHYCSyaskkjb5yoT56YpQ3LzXzU2LVNSwg4LWBuOfrfD5bqhSvGaexnK7i7k9MDEuD+Y1ScBliQ1BFAIFACZsH+iV+v0gvWqX5zyt9cKBIoAJL1nUB+bqHMvNJXrpugr56fp+0bmWPtu0H2WEIUpx4bMMJFAAF3CGRtztN3IxboxWvGa+qPa5WfE8dTn+5ImSh8JlBUWKTVC7br3fum6Y07pmjVfG5E4bMh9mw6FKeeHToCRwABNwisW7JD71l/3N8aOlUr5myVuZDEDXERAwKlCWzbkKuvX5gfvthv1m/rZQrV0rbnPQTsFLC7OLUzN/pCAAEEbBOYO3aDXr52gsyFJJvX7FRRkW1d0xECEQuYO6CZ+aRmXulvHyxlBYqI5djQTgGKUzu16QsBBHwtYNaENH/4X7xyvMyFJeYCE3sTpjcEihcwc6UXTNykETdO0qdPztbmtTuL35BXEXCBAMWpCwaBEBBAwF8CWzfkhC8sMReYmAtNzAUn/sqQbLwiUGQdwl+7ZIc+fHiGRt08SStmb/VK6MQZYAHXFqcBHhNSRwABnwiYC0zMhSbmghNz4YkpFHySGml4QMDc2ez/Xl2kl64eL7NeKfNKPTBohBgWoDgNM/AvBBBAID4CpiAwF5yYu0x989ICbdvgimV64pMsrbpCIG9noSZ/vzp8sdNPry9S9rZ8V8RFEAhEKkBxGqkU2yGAAAIVEDC3Pv313SXhBc5/e3+pdlIwVECTXYsTMHcuM3cwe+OfU/TBgzNk7mxW3Ha8hoDbBbxfnLpdmPgQQACBvQTMhShmofMXrxmv6T+vVX4el/XvxcPTKASKrI/QplXZ4TuXmTuYLZi0MYpW2AUB9whQnLpnLIgEAQQCJLB28Q69e890vXnHFC2fvUVunY8aoCHxZKpmmsgPIxfouSvGydy5zFyV78lECBqBvQQoTvfC4CkCCCBgp4ApSOeN26ARN0zS50/PlVkf1c7+6cu7Ank7CzTui5V63ipKf3xzsbI253k3GSJHYD+BABWn+2XOjwgggIBLBMx81DH/Xh6+gOX3j5YpJ6vAJZERhtsEzB3IFkzcqJE3TtK/H5+lLaxX6rYhIp4YCFCcxgCRJhBAAIFYCGxdl6MvnpmrV66foNn/Xe+tW6HGAoA2ShQw80rXLdmhDx6aqddvn6KlM7eUuC1vIOB1AYpTr48g8SOAgO8EVs7dpreGTtV798/Qjk0sPeW7AS5nQuYq/F/fW2IdWZ+gqT+sFjd1KCcgm3tOgOL0z0PGKwgggIDjAub07fT/rNGwf4yWOdXPVf2OD4n9ARRJZmmo8Bq5L85X9jbmldo/CPTohADFqRPq9IkAAghEKJC1JS98qv+Fy8dq/viNPriqP8LEA76ZmUv67r3TNeL6iVo+e2vANUg/aAIUp0EbcfJFAAFPCqxasF2jbp6kt+6aqvVLszyZA0GXLWAuhvvhtUUaduFoTbOOnBcWWodPy96NLRDwlQDFaQWGk10RQAABuwVm/bZez142Vt+Y07xb8+3unv7iJLB7Gsczl4zWD68ulFnBIU5d0SwCrhegOHX9EBEgAgggsK+AKVx+eXeJnr54tCZ9u0rmgpl9t/DFT8FIwjowunzOVo24YaLeuWe6Nq7aGYy8yRKBUgQoTkvB4S0EEEDAzQJb1+fow4dnylwwM3/8BpnlhtwcL7HtK2CWDvv3k7P10tUTwhc+7fsuPyEQXAGKUzvGnj4QQACBOAqYC2ZevWWKXr9tstYs2hHHnmg6FgJmKajdR77Hfb5CBXmFsWiWNhDwjQDFqW+GkkQQQCDIAuZWqHPHbtBzl43V58Pnasem4Cw75JVxL8gv0rSf1uiZS8f8MWd4G3OGvTJ2xGmvAMWpvd70hgACCMRVwByVG/3xsvB81LGfrWDB9rhqR974kumb9fI142WWh1rHaguRw7FlIAUoTl017ASDAAIIxEZg+6ZcffrkbL141XgtmGDWR41Nu7RSPoFNa3bqgwdn6JXrJmrZLNYrLZ8eWwdVgOI0qCNP3gggEAiBlfO26dVbJ+ude6axPqqNI25WVPjpjcV65pIxmvz9apmlomzsnq4Q8LQAxamnh4/gEUAAgbIFTGE04+e1enbIWH0/YqF2bmeuY9lq0W1hrKf+uEbDLx2j70cuwDo6RvYKuADFqTc/AESNAAIIlFsgd2eBfnpzUXg+6sRvVslcoFPuRtihRIE/Vk2YpPfvn6GNK7JL3I43EECgdAGK09J9eBcBBBDwncCWtTn66JGZ4fu2L5m22Xf5VTyh8rWwfWOuPnlsll6+doIWTNwks3JC+VpgawQQ2FuA4nRvDZ4jgAACARIwV5C/cv1Evf/gDG1ezZ2Jyjv0eTmF+u2DpXrqotEa/+VKVkYoLyDbI1CCAMVpCTB+eZk8EEAAgdIEzBzJKd+vDs+RNBfwmAt5Stue92QdGZXmjvljTdmvnpunrC2sKcvnAoFYClCcxlKTthBAAAGPCpiLpMwFPMMvGaPpP6/l6vISxnHN4h3hO3G9fvsUrV28o4SteBkBBCoiQHFaET32RQABBHwmsHFltt69Z7pevWWyzGl/n6UXdTrm6Kg5Svr85eNk7sTFvNKoKdkRgTIFKE7LJArIBqSJAAII7BIwhdeCiRvDC8e/YxWqG1cGdz6quePW2M+Wh+eVmvmleTsLdinxDQEE4iVAcRovWdpFAAEEPC5g5qNO/88aDb9ktL5/ZYFydgRnfdSiwiKZAv2layfo0yfnyFyRX5HhZF8EEIhcgOI0ciu2RAABBAIpYC6S+umtxdbRwzGa8n+rZQo3P0OsWrBN5q5aZmrDitncctTPY01u7hSgOHXnuLg4KkJDAIGgCmxZu1Mf/2u23ntghtYvzfIdg7ko7Od3lmjUzZM1f/xGLgrz3QiTkFcEKE7jPFKn3NxRtRpVjnMvNI8AAgjYI5CfW6BpP67RC1eP1/+NWqjsrd5fRslMX5j56zq9ZOX03csLtGNTrj2YxfXCawggIIrTOH8Iuh/dUBcP66nDzmmhSlWS4twbzSOAAAL2CJii9MfXF+n5K8dryg+rPbsAvbnl6Bv/nKJ37pmmNYt3yFwMZo8gvSCAQEkCFKclycTw9fRaKTrqwla65Kme6tqvvkIJoRi27tqmCAwBBAIgsGF5lj58aKZeu22yFk/bbBV33kh667ocfT58rkbeODG8NJQ5euqNyIkSAf8LUJzaNMahUEj1WlTRqTd30gUPZKhx+2o29Uw3CCCAQHwFTGG3cNImmQuI/v3ELG1a5d6lp8zFXb9/tEzPXTFOoz9eppwsry4NFd8xpXUEnBSgOLVZPzEppDa9aunCRzN12i0d1aBVVVl1q81R0B0CCCAQewGzBuj4L1Zap/rHyVxYZC4win0v0bVoCug5o9drxA0T9eWz87RtfU50DbEXAgjEXYDiNO7ExXeQmpakjKMaasBDGTryglaqWjul+A0D8CopIoCAvwTMBUXmwiJzgdHMX9Y6ftX72sU79O690/X20Gkyc0yZV+qvzxvZ+E+A4tThMU2vnaojz2thHUntrh7HNlJKaqLDEdE9AgggUHEBUwCaC4zesYpCc8HRynn2rxe6fVOuvnlxvl68ZrxmWEVyfl5hxRPzXgtEjIDnBChOXTBk5gKpes2r6MSr2unce7qpVWZNJSQyNC4YGkJAAIEKCpjT6XPHbtAr103SF8PnavOa+J9ON7ccnfDVSr145Tj98u4S7dyWX8Es2B0BBOwUoAKyU7uMvpJSEtS6Z02dM7SrVai2Vd2maWXsEbC3SRcBBDwrkJOVr98/XqZnB4+RWYIqOw4FY1GRZC7MMvNKP3lstja6+MIszw4kgSNggwDFqQ3I5e2iUtUk9Ty+sQY+kqnDz2mhtOrJ5W2C7RFAAAFXCmRtzdMPry4KL3g/+btVKsi3KsoYRBpe0urhGeElrZbO2CIzrSAGzQaqCZJFwC0CFKduGYn94jBX8FevV0l/GdhKgx7OVJcj6yspmeHaj4kfEUDAgwKmcFy7ZIc+to5ufvbUnApnMG/cBr183URN/m61Z28GUGEEGkDARwJUOy4fzITEkBq2SdcpN3bU2dbp/mZdaigUYhH/0oeNdxFAwAsCBXmF2rB8R4VD3bYxV9nb8ircDg0ggIA7BChO3TEOZUaRnJqgdn1r67x7uum4y9qoZsPKZe7DBggggAACCMRcgAYRiLMAxWmcgWPdfFq1JPU9uakGPZKpg05rJjM/NdZ90B4CCCCAAAIIIOCUAMWpU/IV6Nec1a/VqLKOufiA8K1QOxxSV4nMR41GlH0QQAABBBBAwGUCFKcuG5DyhGNuhdqsU3Wdfkun8K1QG7VJlylcy9MG2yKAAAIIIBAfAVpFIDoBitPo3Fy1V0rlRHU5or7OfyBDR1tHU6vVreSq+AgGAQQQQAABBBCIVIDiNFIpD2yXXitFh5zRTFc831sHn9ZMKZW4FWqsho12EEAAAQQQQMAeAYpTe5xt6yUUCimtRrKOHdJGg4f3VLsD63ArVNv06QgBBBBAIAoBdkFgHwGK0304/PVDvZZVdd49XXXuPV1Uv1UV5qP6a3jJBgEEEEAAAV8KUJz6clj/l1QoIaR2fetYRWq38NJT3Ar1fzZxeUajCCCAAAIIIFAhAYrTCvF5Z2ezaL9Zeur8+zLU8ZB6Sk5N9E7wRIoAAggggIAkEIIhQHEajHEOZ5mQGFLTjtV0+m1/LD3VpF26Eqwjq+E3+RcCCCCAAAIIIOACAYpTFwyC3SEkpyao02H1dP4DmeGlp2rUr2R3CPQnCBBAAAEEEECgOAGK0+JUAvJalRrJOuT0Zhr4cKZ6n9CYW6EGZNxJEwEEEPC9AAl6WoDi1NPDF4PgQ1Kdpmk64ap2Ou/ebmrbp44Sk/lYxECWJhBAAAEEEEAgCgGqkCjQ/LhLQmJILbrW0Fl3dFb/6zuoYWtzK1SrcvVjst7KiWgRQAABBBAIlADFaaCGu+xkza1QM49qoAEPZajfgJaqVie17J3YAgEEEEAAAU8KELQbBShO3TgqLoipaq0UHXFeS13wYIZ6HNtIVWokuyAqQkAAAQQQQAABvwtQnPp9hCuQX8g6q9+gVVWddE1763R/1/AV/smVWB+1AqRx3ZXGEUAAAQQQ8IMAxakfRjHOOSQmhdQyo4ZOuaGDTrYezTtXVygUinOvNI8AAggggIAgjyhAAAAQAElEQVRrBAjERgGKUxuxvd5VapUkdT2yvk6/vbOOvqi1ajWu7PWUiB8BBBBAAAEEXCZAceqyAfFCODXqVdIhZzbXuUO7qm//JqqcnuSFsIlxtwDfEUAAAQQQcLEAxamLB8fNoZmz+vVbVdXfLm2js+7oonZ96igphY+Tm8eM2BBAAAEE4i9ADxUXoJqouGGgWzAFaesetXTarR110tXt1KhtOvNRA/2JIHkEEEAAAQQqJkBxWjE/9t4lUDk9Wd2PaaSz7+yivwxoper1WB91F42HvxE6AggggAAC9gtQnNpv7t8eQ1LNhpV12DnNdc7Qrup+dENVqsp8VP8OOJkhgAACCEQtwI4lClCclkjDG9EKJCSG1LhdNZ14TXudflsntelZW+a1aNtjPwQQQAABBBAIjkBCcFIlU7sFklMTwhdKnXprJ51wZVuZBf3tjoH+bBGgEwQQQAABBGImQHEaM0oaKkmgao1k9T6hic66q4sOPau50munlLQpryOAAAIIIIDAPgLB+4HiNHhj7kzGIalOkzQdNai1zHzUrv0aKKVSojOx0CsCCCCAAAIIuFaA4tS1Q+PPwBKSQmrasbr6X9teJ13TTvWaV2HpKX8OdbFZ8SICCCCAAAJlCVCcliXE+3ERSElLVMZRDXXxsJ7qN6ClqtbkVH9coGkUAQQQQCAoAr7Jk+LUN0PpzUQqpyfpyPNb6qIneqjbXxsouRIfSW+OJFEjgAACCCAQGwEqgdg40koFBeo0TdPpt3bSefd1U7NO1Vl6qoKent+dBBBAAAEEAitAcRrYoXdn4q0za+kfj/fQSde0Dy/oHwqF3BkoUSGAAAIIIOBRAbeHTXHq9hEKYHyJSSH1PK6RhjzTU4ec0UyVrFP/AWQgZQQQQAABBAIpQHEayGH3RtJp1VN0zCUH6OLHe6rTYfVkFvX3RuREaZ8APSGAAAII+E2A4tRvI+rDfOq3qqKz7+qiM+/ookZt05mP6sMxJiUEEEAAARcKOBQSxalD8HRbfoH2B9bRRY/30HGXtVV67dTyN8AeCCCAAAIIIOB6AYpT1w8RAe4tkFI5UX37N9GQ53qFv6dWSdr7bZ4jUJIAryOAAAIIeESA4tQjA0WY+wpUs46cnnBlO134WHe16VlLScl8lPcV4icEEEAAAQTsEohtP/xFj60nrdks0LhNui54MFOn395Z9VpUUSjE0lM2DwHdIYAAAgggEFMBitOYctKYEwIh61Pc6dC6Gjy8l44dcoBqNqjkRBj06RMB0kAAAQQQcFbA+rPubAD0jkCsBMx81INObaZLrSL10DObqxLzUWNFSzsIIIAAAgjEQiCiNihOI2JiIy8JVK35x/qo/3ishzpaR1SZj+ql0SNWBBBAAIGgC1CcBv0T4OP8G7apqrPu6KKzh3ZRozbpzEf18Vg7khqdIoAAAgjERYDiNC6sNOoWgYTEkNr1raOLnuih4y5ro/Q6rI/qlrEhDgQQQAABBIoTMMVpca/zGgK+EjDzUQ88pamGDO+lPn9vopRKib7Kj2QQQAABBBDwiwDFqV9GkjwiEqhWN1UnXtUuvD5q2z61ZY6sRrQjGyEQtQA7IoAAAgiUR4DitDxabOsbgSbtq+m8e7vpDLM+anPWR/XNwJIIAggggIDnBcpVnHo+WxJAYC8Bc9S08+H1dMlTPXXURa1VpWbyXu/yFAEEEEAAAQScEKA4dUKdPl0lUKlqkg47q7kuHdZL7Q+qw1X9rhqdQAVDsggggAAClgDFqYXAFwJGoFbjyjr37q46887OqtmosnmJBwIIIIAAAgjYLBCf4tTmJOgOgVgJhBJC6nxYPV35Yh8d9Y/WSk3jqv5Y2dIOAggggAACkQhQnEaixDaBEzBLTx1+TgtdPeJA9TyhsZJS+E8lcB8CFydMaAgggICfBfiL6+fRJbcKC5ilp/pf215Dnuuttr1rMx+1wqI0gAACCCCAQOkCDhenpQfHuwi4RaB+iyo6/4EMnXN3F9VrXsUtYREHAggggAACvhOgOPXdkJJQvARCIanDwXXDR1GPHdJGadWT49UV7SIQGwFaQQABBDwoQHHqwUEjZGcFklMTdPBpzXTFC33U87hGzEd1djjoHQEEEEDAZwJeKU59xk46fhAIz0e9voMueqKHWmXW9ENK5IAAAggggIDjAhSnjg8BAXhdwNwKdeDDmTrjn51l1kr1ej7EH0QBckYAAQTcI0Bx6p6xIBIPC5hboXY9sr4uf76P+l3QUqlVkjycDaEjgAACCCDgnIDvilPnKOkZAcks2t9vQCtd8VIfZfy1gUzRigsCCCCAAAIIRC5AcRq5FVsiELFAzfqVdNqtnTTo0Uw17VAt4v3YEAGXCxAeAgggEHcBitO4E9NBkAVadqupi57sqVNu6qjq9SoFmYLcEUAAAQQQiEgguMVpRDxshEDFBRKTQup+TENd/nxvHXZWc6VUTqx4o7SAAAIIIICATwUoTn06sKTlPgGzaP/RFx+gwc/0Upd+DZSQEHJfkESEQIwEaAYBBBCIVoDiNFo59kMgSgFz+9Mzb+ukS4b3VIuuNaJshd0QQAABBBDwpwDFaZnjygYIxEHAOmjapF01Xfiv7jrdKlRrMB81Dsg0iQACCCDgRQGKUy+OGjH7RsAsNdXtLw105St9ZZagYj6qb4aWRCIVYDsEEEBgPwGK0/1A+BEBJwTC66Ne0FJXvtRHXQ6vz3xUJwaBPhFAAAEEXCFAcRq7YaAlBCosULNhZZ15R2cNsk73N27L+qgVBqUBBBBAAAHPCVCcem7ICNj3AiGpZbcauuTpnup/XXtVq5Pq+5RJEIGyBdgCAQSCIkBxGpSRJk/PCZj1UXsc11gDH8lUZ+tUf2Iy/7l6bhAJGAEEEECg3AL8tSs3WcV3oAUEIhUIWUdRzdJTZ9zeSRfc101NO1SPdFe2QwABBBBAwJMCFKeeHDaCDpqAuaq/dc9auvBfmTrx6vbcCjVoHwDyLY8A2yKAgMcFKE49PoCEHyyB5EqJ6nNSYw0e3ksHn9ZMKdbPwRIgWwQQQAABvwtQnLp5hIkNgRIE0mun6G+D2+iiJ3uo/UF1ZY6slrApLyOAAAIIIOApAYpTTw0XwSLwPwEzH7VRm3Sdc1cXnT20ixoekP6/N3mGAAJlCrABAgi4U4Di1J3jQlQIRCyQkBRSB+vo6cCHM9W+b52I92NDBBBAAAEE3ChAcerGUSl3TOyAgGTuMpVWPRkKBBBAAAEEPC1Acerp4SN4BBBAAIG4C9ABAgjYKkBxais3nSGAAAIIIIAAAgiUJkBxWpqO/94jIwQQQAABBBBAwNUCFKeuHh6CQwABBBDwjgCRIoBALAQoTmOhSBsIIIAAAggggAACMRGgOI0Jo/8aISMEEEAAAQQQQMAJAYpTJ9TpEwEEEEAgyALkjgACpQhQnJaCw1sIIIAAAggggAAC9gpQnNrr7b/eyMh3ArUbpfkuJxJCAAEEYiVQrXZqrJqinRIEKE5LgOFlBIIqcNzlbXXKzR1Vq1HloBKQNwKuESAQ9wikVE7UgSc31eBne7knKJ9GQnHq04ElLQSiFTC/gLsf3VAXD+upw85pIW6JGq0k+yGAgB8EQgkhtTuwji56vLuOu6yNqtXhyGm8x5XiNN7CtL9LgG9eE0ivlaKjLmylS6witU//JjJFq9dyIF4EEECgIgL1W1bROUO76uw7uqhR22oyhWpF2mPfyAQSItuMrRBAIIgCoVBIdZqm6bghbXXBAxlq07u2EhL5tRHEzwI5u1yA8GIqUKNBJR1z8QG66Ime6nBwHSWl8nsvpsBlNIZ2GUC8jQACUmJSSC261tDJ13XQXwa2DM9HtepWaBBAAAFfCSQkhtS1XwOdd283HXJmc1VOT/JVfl5JhuLUKyMVnDjJ1MUC1eqm6vBzWujsO7uo+98aKa1GsoujJTQEEEAgcoGmHavpggczdNotHdWgVVXxP+CR28V6S4rTWIvSHgIBEGjYJl0nXdNeZ9zaWW161VZyamIAsiZFBPwgQA77C1Svl6r+1lmhQY/20AE9askcPd1/G362V4Di1F5vekPANwLmVP8BPWvpjNs76fjL26qRVbAyH9U3w0siCPhewFzkefBpzTTkmd7qeXwjpVSiJHLLoDMSbhkJ4ii3ADu4Q6ByenL4F7u5ovXQM5upZv1K7giMKBBAAIFiBMyR0Q4H19XFT/bQ3wa3UdVaKcVsxUtOClCcOqlP3wj4SMBc3frXC1vrzLu6KOPohqpUlQsJfDS8pBI8AV9mbM7wnDO0i866s4saHpDOvFKXjjLFqUsHhrAQ8KKAuYCgSbtq6n9te51yY0e1yqyppGR+zXhxLIkZAT8JmHWbjx3SRhc+1l3tD6orMy3JT/n5LRf+avhtRMnnzwK8YrtAUkqCOh5SV2fd0SV82qx+iyrWEYqQ7XHQIQIIBFvA/C7q07+JLn2mt8z80kpVOKPjhU8ExakXRokYEfCogLn1aV/rD8PZd3fVQac25bZ/Hh1HwkagNAE3vhcKhWQu2LzoiR464Yq2qlEv1Y1hElMJAhSnJcDwMgIIxE6gTpO08BHUM27vrC5H1FcqRy9ih0tLCCCwj0DdZlWsszaddd593dSkfTXO2uyj440fErwRJlEiYIcAfcRTwDqQoRZda+jkGzrotJs7ho9qJDIfNZ7ktI1AoATSqiXrqH+01iVP9VSnw+sx393Do09x6uHBI3QEvChg1hY0y7icfVcXnXhVO9VrXsU6suHFTIgZAQTKJRCnjc280syjG+rSp3uG72BXOZ15pXGitq1ZilPbqOkIAQT2FkhNS1LP4xppwEMZOuLclqpSk7UG9/bhOQIIlC5gilJz4eXAhzPDZ2RqN0krfQfe9YwAxalnhopAXSRAKDEUqF6vkvoNbKWBD2aoa7/6SqmUGMPWaQoBBPwmkJAQUuN26Tr15k46/bbO4elCCYkhv6UZ6HwoTgM9/CSPgDsEzHzUhm3SdcpNHcMXMjTvXEPcCtUdY0MUCNgvUHKP5n9mj774AF3wQKa6HFFPyamUMSVrefcdRtW7Y0fkCMRFYOxnK7R+eVZc2i6rUbNgf9u+dXTefV113GVtVLtxZeajloXG+wgEQMDcca73iU006JFMHXx6M1WpkRyArIObIsVpcMeezG0Q8GIX035crVeum6if316irC15jqRQOT1ZZn1UM5fsoNOayayX6kggdIoAAo4KJCYlqG2f2jrv3m464cq2qtM0jf9hdXRE7Omc4tQeZ3pBwFMC2zbk6NuX52vkjRM16duVytrsTJFas2FlHWOdwjv/vgx1PMScwmM+qqc+SASLQJQCoVBIDVtXVf8b2svcac4sQ1fMvNIoW2c3twtQnLp9hIgPAQcFVi3Yrk8em6P3HpyuOaM3KC+n0PZozB+kph2r6fTbOum0WzqqSbt0mQsibA+EDhFAwBaBanVT1W9ASw14KFOZRzWUWX7OaTxNkwAAEABJREFUlo7pxDUCFKeuGQoCCbSAi5MvyC/U/PEb9b5VoH46bJZWztumwoIi2yM2Fz50Oqyezn8gU+aCiBr1K9keAx0igED8BEwR2uPYRrrggQwdcV4LVa2VEr/OaNnVAhSnrh4egkPAPQI7t+dr0jer9dbQqfrP20u0adVOFdlfo4YvhDjk9GYy81F7n9BY5kIJ9ygRCQIIlFcgISlBLTNq6uw7u+ika9qrQauqCoVC5W2m1O1501sCFKfeGi+iRcBxgc2rd+qHUQv14cPTtWTaZhUVOlChWn+3zIURJ1zVLrz8lLnLlOMwBIAAAuUSCIVCqlE/VYed2Uyn3dJJbXrXVmKS9R93uVphYz8KUJz6cVTJyccC7kityDpkunjaFo26eZJVpM7UhpXZjgSWkBhSx4PravDwXjr+8t1X8vLHzZHBoFMEyiFQuVpS+KYbZ93VVX+9sLWq100tx95s6ncBilO/jzD5IRBHgfzcQk3+frVeuHKc/vPmYmVvy49jbyU3nZKWqANPaapBj2b+sQYit0ItGYt3EHBQwMwdb9mthk69sZNOvbmjmrSr5mA0xXTNS64QSHBFFASBAAKeFjBLTX03YoFeuGqcpv64Rvl5DpzqtwSr162kYy45QOff103m4qnkSvyKs1j4QsBxAXOWw8wlPebiNjr3nm5qf1AdmdccD4wAXCnAb25XDgtBIVBhAUcaWL80S+/fP0Nv3jFFy2ZtkTn9b3cgIeusfpP21XTG7Z116k3WkRnreUISv+rsHgf6Q8AIhEIhmaWh/jKwlS78V3f1PbkJFzEaGB6lCvAbu1Qe3kQAgfIKmIJ03rgNGnH9JH365BxtXrOzvE3EZPvEpJA6H14/vFbiMRe1Vs1GlbkCOCayNIJAZAJmJY3uf2sUXlnjsLNbyF93eovMgK2iE6A4jc6NvRBAoAyBvJwCjft8hV64crx+e3+pzFJUZewSl7crpyeF56EOfChDvU9qLHMhRlw6olEEEAgLJKUkhJeGOmdoV/392nYyq2lYB1DD7/EvBCIRoDiNRIltEPCxQLxT27YhR189P0+vXD9Bs/+7ToX5zsxHrd04TSdc2U7n3ZOhdn3ryFyYEe/caR+BIAmEQqFwIXriVe10/gMZapVZk3mlQfoAxDBXitMYYtIUAgiULLBq/na9NXSa3r57qlbM2aoiB2pU62+nmneprrPv6qL+13cIL/bNRRkljxnvIBCpgLmb02FnNw+vmGHu8pSSSnmxy45vUQjw6YkCjV0QQCA6AXPb01n/Xa+Xrp6gjx+dqU2rnZmPak47dvtLA+sPaXeZCzXMBRuhUCi6pNgLgQALpKYlqmu/Bhr4UGZ4vdL02qxXGuCPQ8xSpziNGSUNIeBzgRiml59XqInfrNKzg8fopzcXKyerIIatR95UlRrJOvzsFhr4cKa6/62hUqskRb4zWyIQYIHEpAQ161QjvCrGaTd3VIPWVcX/3wX4AxHj1ClOYwxKcwggELmAWbT/+xEL9Pzl4zT9P2tkjqxGvneMtrQOmJoLNv5+bfvw6f5WGbVkjqzGqHWaQcBXAqFQSLWbpOnYIQdY/1OXEZ6/nZBk/UfkqyydSYZe/ydAcfo/C54hgIBDAuuW7tB7983Qq7dO1nKH5qOauacH9Kil8+/vJnNBhylYQyH+6Dr0kaBbFwpUtc40HHRqU5lT+H37N1VK5UQXRklIfhCgOPXDKJIDAq4SiC6YwsIiLZiwUa9cN1GfDZutretzomuognuZu0qZCzoGPZqpfhe0VHrtlAq2yO4IeFvA/DfR4eA6Ou/+DP1t8AGq2bCStxMietcLUJy6fogIEIFgCeTtLNDYz1bo2cvG6fePlikvp9ARgPTaqTrSKk4HD++l3ic0lrnww5FA6BQBhwTM2YTG7avp1Js66aw7u8rceS0U4myCQ8Pxv24D8IziNACDTIoIeFFg+4Ycffns3PB81Dmj18vcecqJPKrXq6STrm0vc9FUq8xaSkzi16YT40Cf9gmEQiHr6GhlHfWP1hr4YKY6H17P+txTlNo3AvTEb1k+Awgg4JRAmf2atVDXLNquN++cqrfumqY1i3aUuU+8NmjasboGPZKpk29oH15oPBTij3W8rGnXOYFK6Uky65UOeaanDj2zubijmnNjEeSeKU6DPPrkjoBHBMxV/LN+W6cXrhynr6yjqTs25zkSecj6jZlxVENdPKyn+g1oqao1mY/qyEDQacwFzB3TOh1WTxc/3jN8xDStOp/tmCPb3qB3O7R+1Xo3eCJHAIFgCeRmF+i3D5fp2SFjNf6LlcrPdeA2UxZ5Zevo0pHnt9RFT/RQt782kLlgxHqZLwQ8J5CQGFKjtuk6e2jX8FJq9VtV8VwOBOw/gQT/pURGCCDgN4H989mydqf+/cQsvXLdBC2ctNGx+ah1mqbp9Fs76bz7uqlF1xoyf+j3j5WfEXCjQCgUkplPfdxlbXXR4z3UtndtN4ZJTAEVoDgN6MCTNgJeFzDzUZfN2qJXb5mi9x+YoVXztqkw35kjqa0za2nQo9110jXtwxeShELMR/X658vP8Zs7ofU9uYkuHd5Tffs3Yb1SPw92ZLm5biuKU9cNCQEhgEB5BAryCzX1hzUaectk/f7JcuU7tPRUYlJIPY9rpIutU/1d+9UvTwpsi4BtAvVbVNE5Q7vo+MvbqlrtVNv6pSMEyiNAcVoeLbZFAAHXCmRtztVXz83V8EvHaOZv6xyLs1rdVJ1+WyddPKyHGrdNdywOOkZgb4FKVZPCR/Yvf7GPWnevtfdbPEfAdQIUp64bEgJCAIGKCKxflqW375qm126drDWLnVt6qnnnGhryXG/1v74DV/VXZEDZt0ICZh60OXV/w5sHq/eJjZkXXSFNdrZLgOLULmn6QQAB2wTMgv1zx27Qc4PH6ovhc5W9Nd+2vvfvyJzqv2bUgTrs7BZKSuFX7v4+/Bw/AXOE9PIX+uiEK9vJHDmNX0+0jEBsBfhNGVtPWkMAARcJ5OcV6vePl2nYP37XmH+vUMGeC6bsDdIUBkdf1FpXvtxX7frWsbdzegucQK1GlXX+/d006NFM1W/J0lCB+wD4IGGKUx8MIikggEDpAts35uqzp2br+cvHasGEjaVvHMd3azf+o2i4+KkeMktPcVF/HLED2PTu/wm66hX+JyiAw++ulCsYDcVpBQHZHQEEvCOwav52vXrr5PCtUNcvy3Ys8Oadaugfj3XXabd2Cq816VggdOwbgR7HNtI1I5k+4psBDXgiFKcB/wCQPgJBEzC3Qp3561o9O2SMvn9lgXJ2lDofNW48oYSQuv2lga4e0VdHnNuCtSbjJu3fhhOsz1D7A+vIHCk9+YYOqlorxb/JklmgBChOAzXcJIsAArsFzK1Qf3prsZ66aLQmfLVSRYXOLOCfUjlRf72wta54qY86H15PCYn8Wt49RnwvWaBeiyo6/4Fu4buTmeclb8k7CLhZoPjY+C1YvAuvIoBAQAS2rM3RJ4/N0ktXj9fSGVscy7pWw8o6684uGvhIhhq1TRfzUR0bCld3nFY9Wcdf3k7mKvw2vWq7OlaCQyBaAYrTaOXYDwEEfCNgboW6dOZWvXztBL3/4AxtWZdT7txitUOrjJq69OleOuna9jIL+seqXdrxtkBiUoL6nNRE14w4UAee0kSJSSFvJ0T0CJQiQHFaCg5vIYBAsATMfNQp36/WUxeO1n+sU/7m1L8TAqbw6HV8Y135Ul8dfFozsT6qE6Pgjj5DoZAO6FFLg5/tqROvbqe0GsnuCIwoEIijQDHFaRx7o2kEEEDAAwI5Wfn67pUFemLAfzX+y5UyRasTYVdOT9KxQ9qET+G2P6iOzAUwTsRBn84I1GmSpjPv7KwBD2WoYet0Z4KgVwQcEKA4dQCdLhFAwBsC2zbkhuejPjdkrBZN2RSboKNopW6zNJ13bzede29X1WvBoupREHpql9S0JB1zSRtd9nxvdT6snkIJnML31AASbIUFEircAg0ggAACPhdYtWC7Xrluot69d7o2rd7pWLbm7lLmQpjjLmurtGqc3nVsIOLUcWJSSJlHN9RVI/rq0DObsbxYnJxp1v0CFSlO3Z8dESKAAAIxFJj20xoNG/S7vh+5UPm5hTFsOfKmTAFz0KlNZda2NBfIJCbzazxyPXduGbIOjDbrWF0XD+uhU2/uqOp1U90ZKFEhYJMAv9VsgqYbBBDwh4ApSn96Y5EeP/+/MhdPxS+r0ls2C66bC2QGP9NTrTJrKhSyKpzSd+FdFwpUr1cpfKcwU5g2aV/dhRESEgL2C1Cc2m9Ojwgg4AOBretzwstOvXDFOK2Yu82xjMyFMoMeydR593VV4/bVHIuDjssnYG6+YO4MZu4QZu4UxrzS8vmxtb8FbClO/U1IdgggEGSBZbO2ylww9eHDM7V9Y64jFKawMfNRL36ih066ph23sXRkFCLrNCExpM6H19cVL/YN3xnMFKmR7clWCARHgOI0OGNNpgggEEeBSd+u0uMX/Fc/v73Y7vmoe7Iy66H2PrGJrnq5b3h91ORKiXve44mzAqFQSK2719Ilw3rqrDs7q1ajSs4GRO8IuFiA4tTFg0NoCCDgLQGzaP+3Ly/QU/8YrVm/rXMseHOLS7M+6uBneqlt79rMR3VsJP7ouFajytq9XmmTDky9+EOFfyNQsoC7itOS4+QdBBBAwDMCG1dm6807p2rkjZO0ZtEOx+Ku36KKzn8gIzwftV5z1ke1eyAqVU3SXwe11hUv9pFZr9Sc0rc7BvpDwIsCFKdeHDViRgABTwgsmLhRo26eqJ8dvBWqdTZZZj7qhY9214EnN1VKKqf64/3hMUVoh4Prhm+ccMjprFcab2/a958Axan/xpSMEEDARQLmLlPfjVio568Ypxm/rFORM8ujqmrtFB1/RVtd8nRPtelVWwmJ/PqPx8ekcbv08FqlJ9/QUS261lBSKs7xcKZNfwt49L8afw8K2SGAgL8EioqKtHbxDr1//3S9duskLZm+WYUFRY4k2aB1VZ1/fzeddUdn1W9ZRebIqiOB+KzTanVTdfRFB+icod3UtV8DpVVL8lmGpIOAfQIUp/ZZ0xMCCARcID+vUPPGb9Rrt03RR4/O0hqrYLXqVttVzGnnjofW1aVP9QoXVOYCqn2C4IeIBVIqJarXCY11wQMZMqfwq9dLpeCPWI8NEShegOK0eBdeRQABBOImkLMjX5O/W6VRN03ST68vcmx91JS0RB16VnNd/nwf9Ti2kZK4FWrEY24K/Da9a+vce7vquCFt1KBVVSUkcZeuiAHZEIFSBPxenJaSOm8hgAACzgps25CjH99YpJE3T5JZJzU/15kJqeZoX//rO+jCx7qrZbca1pE/iqzSPhlmOkT/a9vrtJs6htcuZT3Z0rR4D4HyCySUfxf2QAABBBCIlYCZe7pm4XZ9+uRsvXnXVC2euklFhfbPRzVzT5t1qq5Bj3bX6bd1VK2GlWuL4VYAABAASURBVCNIMVibVK2Zon7nt9S593RT5t8aqor1c7AEyBYBewQoTu1xphcEEECgVIG8nELNG7tBb9w51SpU52jDiuxSt4/Xm+Z0tbmg57LneuuYiw9QtTop8erKM+2aO29lHNUwPK/08PNayiyqHwpxdNkzA0ignhOgON01ZHxDAAEE3CCwc1u+xn+5UiNvnKhf3l2i7K35joRVKT0pPB918DO91ad/E5kLfxwJxMFOQ6GQWnarqbPu6qITr2qrRm3Tlci8UgdHhK6DIkBxGpSRJk8EEPCMQFFRkTav2anvXlmgkTdN1PSf1qog3/5T/QasWp1UnXBF2/B8VLOYf0JiVEcMTVOeetRukmYVpO10xj87q33fOkpNY2koTw0gwXpagOLU08NH8Agg4GcBMx915bxt+vDRmXrnnqlaNnOLTOFqd86hUEhN2lfTOUO76Mw7OsvPt0I165P+ZUArXfpUT/U6oZHSa6XYzU1/CARegOK0vB8BtkcAAQRsFsjbWaBZv63XG3dM0dfPz9emVTttjuCP7hKTE9Tp0Hq6eFgPHXPJAapSPfmPN3zwbzOv1My1vXR4bx15QUuZtV9DCcE4SuyD4SMFnwlQnPpsQEkHAQT8K7Bjc57+++EyjbplkvV9qXKzCxxJtnJ6sg49s7kuHd7rj/VRU2L3p8TuhEKhkJp3qa7zH8jQabd0VO3GrFJg9xjQHwL7C3j3N8r+mfAzAgggEAABc1p/w/IsffPSAo26eZLmjF6vQofmo5qr1vtf314X/qu7WnSt4bn1UWs2rKSTrm2vgQ9lqnVmTQVlPm0A/jMhRY8LUJzGbQBpGAEEEIifQEFeoZbO2KL37p+h9x+coVXzt6vIgWumQqGQzPqopsA79WbryGOTtPglHaOWU82dscyR36d7qdfxjcQi+jGCpRkEYiRAcRojSJpBAAEEnBDIycrXtJ/W6JXrJ+izYbNl7jrlRBxJqQnKOKpB+EKiI89vKXPqP65xRNG4OTLa8ZB6uvipnjr64gNkFtWPohl2QQCBOAtQnMYZmOYRQAABOwR2bs/X2M9W6JnBY/X7R8uUm+PMrVDNhUT9BrTSJcN6qGu/+jIXUdmRf1l9NGqTrvPu7aaz7uysBi2ryjrgW9YuvI8AAg4JUJw6BL9XtzxFAAEEYiawfWOuvnhmrl68YpzmjFkvsxxVzBqPsCFT+NVtXkWn3dJJF9zXTU07VI9wz9hvVq1uqo6/vK3+8Xh3te1Tm3mlsSemRQRiLkBxGnNSGkQAAQScF1i9cLve/OdUvXPPdK1ZtMOR+agJiSG17llLF/4rU3+/roOq16tkG4y5o5W5s9Xg4b104ClNxSL6ttHTEQIVFqA4rTAhDSCAAALuFCgsLNLMX9fqhavG6esX5ilrS54jgZoLjsyFR4OH99KR57ZQWo34rY9qCmJzJ6sLH8sM39nK3OHKkaTpFAEEohagOI2azv4d6REBBBCIRiA3q0C/vb9Uwy8do/FfrFB+rjPzUdNrp6jfoNYaYhWp3f/WSIlJsV3kvl6LKuE7WJ09tKuatK+uUCi27Udjzz4IIFB+AYrT8puxBwIIIOBJga3rcvTFM/P0wUMztGLuVutUv/1rT5l6sWbDyjrxqrY65caOqte8aoUtK1dNUu8TG2vAgxnhO1glJUdVlFY4DhpAAIHYCFCcxsaRVhBAAAFPCOTlFGj6f9bqtVsn67tXFmjzGmduhZqcmqhuf22gvw0+oMJubXrV1nGXtbV1TmuFg6YBBBAoUYDitEQaD79B6AgggEAZAjs25+mXd5bo1Vsmh0/15+zIL2OP+LxtitSKtpyUwp+yihqyPwJuEuC/aDeNBrEggAACNgqYO0qtW7pDnz01R2/cOVXzxm1QgUO3QrUx7Qp3RQMIIBBfAYrT+PrSOgIIIOB6AVOQLpq8SW/fPV3/fmKWzDJURaZydX3kBIgAAn4UoDj146hGnBMbIoAAAv8TyM3O18SvV+m126box9cWafOanP+9yTMEEEDAJgGKU5ug6QYBBBDwisDWdTv14+uL9frtk/XfD5dpxyZn1kf1ileJcfIGAghEJUBxGhUbOyGAAAL+FjCn9dcs2q5vXpyvd++bplm/rnNsfVR/S5MdAgjsL0Bxur8IPxcnwGsIIBBQgYL8Qi2cvEkfPjpTHz06S8tmbRXTUQP6YSBtBGwSoDi1CZpuEEAAAS8L7Nyer6k/rNa790zT9yMWaNOqbC+n47LYCQcBBPYWoDjdW4PnCCCAAAKlCmxeuzO8PuqbQ6dq7KfLlb3NmfVRSw2SNxFAwNMCFKeeHj73BU9ECCDgf4HCwiKtnr9dXz43T+/dP11zx6xnPqr/h50MEbBNgOLUNmo6QgABBPwlkJ9bGF64/4OHZ4YX8l85f5u/EnRfNkSEQCAEKE4DMcwkiQACCMRPIGtLniZ+vVLv3D1NZn3ULayPGj9sWkYgAAIUpwEYZFemSFAIIOArAXMF/8aV2frxjUV66+6pmvTdauVkFfgqR5JBAAF7BChO7XGmFwQQQCAQAoUFRVoxZ6s+e3K23ntguhZM3CjzWiCSd1GShIKAlwUoTr08esSOAAIIuFQgd2eB5vy+PnzB1JfPzpNZ0N+loRIWAgi4TIDi1GUDQjj7C/AzAgh4WWDH5jyN+fcyvX3P9PASVFvX53o5HWJHAAEbBChObUCmCwQQQCDIAmY+6vqlO/T9yAV6884pmvjNKuVmMx/VFZ8JgkDAhQIUpy4cFEJCAAEE/ChQkF8Uno/6yWOzrCJ1qhZN3sStUP040OSEQAUFKE4rCMjurhEgEAQQ8IiAuUDKXCj1+j+n6IdXF3okasJEAAG7BChO7ZKmHwQQQACBfQTMqf3FUzft8xo/uFWAuBCwT4Di1D5rekIAAQQQQAABBBAoQ4DitAwg3vafABkhgAACCCCAgHsFKE7dOzZEhgACCCCAgNcEiBeBCgtQnFaYkAYQQAABBBBAAAEEYiVAcRorSdrxnwAZIYAAAggggIDtAhSntpPTIQIIIIAAAggggEBJAhSnJcnwOgIIIIAAAggggIDtAhSntpPTof8EyAgBBBBAAAEEYiVAcRorSdpBAAEEEEAAgdgL0GLgBChOAzfkJIwAAggggAACCLhXgOLUvWNDZP4TICMEEEAAAQQQKEOA4rQMIN5GAAEEEEAAAS8IEKNfBChO/TKS5IEAAggggAACCPhAgOLUB4NICv4TICMEEEAAAQSCKkBxGtSRJ28EEEAAAQSCKUDWLhegOHX5ABEeAggggAACCCAQJAGK0yCNNrn6T4CMEEAAAQQQ8JkAxanPBpR0EEAAAQQQQCA2ArTijADFqTPu9IoAAggggAACCCBQjADFaTEovISA/wTICAEEEEAAAW8IUJx6Y5yIEgEEEEAAAQTcKkBcMRWgOI0pJ40hgAACCCCAAAIIVESA4rQieuyLgP8EyAgBBBBAAAFHBShOHeWncwQQQAABBBAIjgCZRiJAcRqJEtsggAACCCCAAAII2CJAcWoLM50g4D8BMkIAAQQQQCAeAhSn8VClTQQQQAABBBBAIHqBQO9JcRro4Sd5BBBAAAEEEEDAXQIUp+4aD6JBwH8CZIQAAggggEA5BChOy4HFpggggAACCCCAgJsE/BgLxakfR5WcEEAAAQQQQAABjwpQnHp04AgbAf8JkBECCCCAAAISxSmfAgQQQAABBBBAwO8CHsqP4tRDg0WoCCCAAAIIIICA3wUoTv0+wuSHgP8EyAgBBBBAwMcCFKc+HlxSQwABBBBAAAEEyifg/NYUp86PAREggAACCCCAAAII7BKgON0FwTcEEPCfABkhgAACCHhPgOLUe2NGxAgggAACCCCAgNMCceuf4jRutDSMAAIIIIAAAgggUF4BitPyirE9Agj4T4CMEEAAAQRcI0Bx6pqhIBAEEEAAAQQQQMB/AuXNiOK0vGJsjwACCCCAAAIIIBA3AYrTuNHSMAII+E+AjBBAAAEE4i1AcRpvYdpHAAEEEEAAAQQQKFtg1xYUp7sg+IYAAggggAACCCDgvADFqfNjQAQIIOA/ATJCAAEEEIhSgOI0Sjh2QwABBBBAAAEEEIi9QNnFaez7pEUEEEAAAQQQQAABBIoVoDgtloUXEUAAAXsE6AUBBBBAYF8BitN9PfgJAQQQQAABBBBAwEGBGBanDmZB1wgggAACCCCAAAK+EKA49cUwkgQCCPhegAQRQACBgAhQnAZkoEkTAQQQQAABBBDwgoATxakXXIgRAQQQQAABBBBAwAEBilMH0OkSAQQQiJ8ALSOAAALeFqA49fb4ET0CCCCAAAIIIOArAVcXp76SJhkEEEAAAQQQQACBMgUoTsskYgMEEEDAlwIkhQACCLhSgOLUlcNCUAgggAACCCCAQDAF/FGcBnPsyBoBBBBAAAEEEPCdAMWp74aUhBBAAIHYCtAaAgggYKcAxamd2vSFAAIIIIAAAgggUKpAwIrTUi14EwEEEEAAAQQQQMBhAYpThweA7hFAAAHfCJAIAgggEAMBitMYINIEAggggAACCCCAQGwEKE6Ld+RVBBBAAAEEEEAAAQcEKE4dQKdLBBBAINgCZI8AAgiULEBxWrIN7yCAAAIIIIAAAgjYLEBxWkFwdkcAAQQQQAABBBCInQDFaewsaQkBBBBAILYCtIYAAgEUoDgN4KCTMgIIIIAAAggg4FYBilO7RoZ+EEAAAQQQQAABBMoUoDgtk4gNEEAAAQTcLkB8CCDgHwGKU/+MJZkggAACCCCAAAKeF6A4dd0QEhACCCCAAAIIIBBcAYrT4I49mSOAAALBEyBjBBBwvQDFqeuHiAARQAABBBBAAIHgCFCcenesiRwBBBBAAAEEEPCdAMWp74aUhBBAAAEEKi5ACwgg4JQAxalT8vSLAAIIIIAAAggg8CcBitM/kfjvBTJCAAEEEEAAAQS8IkBx6pWRIk4EEEAAATcKEBMCCMRYgOI0xqA0hwACCCCAAAIIIBC9AMVp9Hb+25OMEEAAAQQQQAABhwUoTh0eALpHAAEEEAiGAFkigEBkAhSnkTmxFQIIIIAAAggggIANAhSnNiD7rwsyQgABBBBAAAEE4iNAcRofV1pFwLMCqWlJno2dwBHwhQBJIBBwAYrTgH8ASB+B/QWOv7yteh7bSCmVEvd/i58RQAABBBCIuwDFadyJA90ByXtQoGbDyup/Qwedf383tcqsqYQkfk14cBgJGQEEEPCsAH91PDt0BI5AfAVaZtTUgIcydfotHdWoTbpCoVB8O6R1BBAopwCbI+BPAYpTf44rWSEQE4HEpJC6HFlfFz3RQ8dd1kbpdVJj0i6NIIAAAgggUJIAxWlJMrxuqwCduVsgpXKiDjylqQY/3Uu9/96E+ajuHi6iQwABBDwtQHHq6eEjeATsFaheL1UnXdVOFz7WXW161VZCIqf67R0BekMgKgF2QsBTAhSnnhougkXAHQJN2lfAxA0hAAAQAElEQVTTefd10xm3d1K95lWYj+qOYSEKBBBAwBcCFKe+GMYAJUGqrhEw81E7H15flzzVU38Z1EpVaia7JjYCQQABBBDwrgDFqXfHjsgRcIVApapJOuLcFrp0WC91/1sjJVfi14orBoYgEIhCgF0QcIMAf0XcMArEgIAPBGo1rqyTb+igAQ9mqEXXGkpIYD6qD4aVFBBAAAHbBShObSenQ3sE6MUJAbMUaouuNTXw4UydclNH1W5U2Ykw6BMBBBBAwMMCFKceHjxCR8CtAkkpCco4qoEufbqnDj+3pSpXS3JrqMSFAALRCLAPAnEUoDiNIy5NIxB0gbQaKTrqwla6ZFgvdTq0npKS+ZUT9M8E+SOAAAJlCfCXoiwh3ve7APnZIFC3WZrOuquLzr2nq5p2qM7SU+IfBBBAAIGSBChOS5LhdQQQiKmAmY/apndtXfhYpvrf0EF1m1aJafs0hgACbhQgJgTKL0BxWn4z9kAAgQoIJKcmqsffGurS4T3110GtlFaN9VErwMmuCCCAgO8EKE59N6QkFC8B2o2tQHh91PNa6vwHuqlltxqxbZzWEEAAAQQ8K0Bx6tmhI3AE/CFg5qAOerS7zvhnZ9VoUMkfSZEFAgiUV4DtEdgjQHG6h4InCCDglEBCYkhdj6yvK1/qq34XtFRqFZaecmos6BcBBBBwWoDi1OkRoH//CZBR1AKpaYnqN6CVrnipT7hYNUVr1I2xIwIIIICAJwUoTj05bASNgL8FatavFD7NP+jRTDXtUM3fyZIdAgiUS4CN/S9Acer/MSZDBDwr0LJbTf3j8R7qf30HVaub6tk8CBwBBBBAIHIBitPIrdgSgRgL0FwkAkkpCep5XCNd8UIfHXpmcyVXSoxkN7ZBAAEEEPCoAMWpRweOsBEImkBa9WQdc8kBGvJsL3U4uC53mQraB4B8ESivANt7VoDi1LNDR+AIBFOgXvMqOufurhrwUIbqteAuU8H8FJA1Agj4WYDi1M+jS25+ESCP/QRCIemAnrV02XO9dfwVbVWlBneZ2o+IHxFAAAHPClCcenboCBwBBMx81ANPbhpeH/WgU5sppTLzUflUIIBAeQXY3m0CFKduGxHiQQCBcgtUrZWi4y5rYxWpfdTl8PpKSLAOrZa7FXZAAAEEEHCDAMWpG0aBGBCIkUDQm6nZsLLOuKOzBj6SqcZtWR816J8H8kcAAW8KUJx6c9yIGgEEShAw81FbZdbUJU/3VP/r2sscVS1hU15GAAEEyiPAtjYJUJzaBE03CCBgr0BiUkg9j2+sq17pq4NPa6bkVH7d2TsC9IYAAghEJ8Bv6+jc2AsBbwsEKPq0ask6dkgbDXmmt9r1qROgzEkVAQQQ8KYAxak3x42oEUCgnAL1WlbRefd30wUPZqg+66OKfxBAIH4CtFwxAYrTivmxNwIIeEjAzEdt27u2hjzXO3w0tXJ6koeiJ1QEEEAgGAIUp8EYZ7JEIEoBf+5m1kc181CvHnGg+vy9iRKT+VXoz5EmKwQQ8KIAv5G9OGrEjAACMREwV/KfeGU7XTKsp1r3qBWTNmkEAQQQiFiADYsVoDgtloUXEUAgMAIhqXG7dA14MENn3dlZtRpWCkzqJIoAAgi4UYDi1I2jQkwIeE/A8xEnJIbU+fD6uvzFvjrolKZKrpTo+ZxIAAEEEPCiAMWpF0eNmBFAIG4CqWmJOvayNhr0SHe17VNbIW6FGjdrGkYAgUgFgrUdxWmwxptsEUAgAoFQKKRmnarpnLu76oIHMtS4fbUI9mITBBBAAIFYCFCcxkKRNhBAIGIBL22YlJygNr1q6cJHM3XCVe1UrXaql8InVgQQQMCTAhSnnhw2gkYAATsFUtOS1PfvTTT42V7q27+JUiozH9VOf/pCAIGIBXyxIcWpL4aRJBBAwA6BanVSddxlbXXR493V7sA6Yj6qHer0gQACQROgOA3aiJMvAl4RcGmc5qr+Rm2r6ew7uuisO7uofssqLo2UsBBAAAFvClCcenPciBoBBBwWSEpNUKdD6+qiJ3rqmIsPkFnQ3+GQ6B4BBBCIWMDNG1Kcunl0iA0BBFwvUDk9SYec2VyXDu+pnsc1UmJSyPUxEyACCCDgZgGKUzePDrEhgEAEAs5vErLq0Zr1K+uka9rrH4/3UOvMWs4HRQQIIICARwUoTj06cISNAALuE0hIDKlZp+o6776uOu3WTqrTpLL7giQiBBBAoDwCDmxLceoAOl0igIC/BcytTzP+2kCXPN1LR5zfUubUv78zJjsEEEAgdgIUp7GzpCUEEHC3gO3RpVVL1l8GtNTFw3oq46iGYj6q7UNAhwgg4EEBilMPDhohI4CAdwRCoZDqNa+ik2/ooAEPZappx+reCZ5IEUAAgYgFYrchxWnsLGkJAQQQKFHAHDVtlVlTAx/O0Om3d1LD1lVl1a0lbs8bCCCAQFAFKE6DOvLkjQACJQrE843UtCR169dAFzyYob9e2FrptVPj2R1tI4AAAp4ToDj13JARMAII+EHAFKWHnd1cFz6WGV4fNSU10Q9pkQMCCCBQlkCZ71OclknEBggggEB8BEKhkOo2raITrmyn8+/PUOsetZSQyK/l+GjTKgIIeEWA34JeGSniRAAB9wnEKKKklAS1zKyhc+7qopOvb696zdOYjxojW5pBAAHvCVCcem/MiBgBBHwqkFolSRlHN9SAh7rriPNaKq16sk8zJS0EEECgZIHdxWnJW/AOAggggIBtAtaZflWvl6ojz2+pCx/tHr54yhxZtS0AOkIAAQQcFqA4dXgA6B4BBIIgUP4cExJDatC6anh91NNu7qgGrczSU6HyN8QeCCCAgMcEKE49NmCEiwACwRJISk1Q5yPq6+yhXXXIGc3CR1WDJUC2CCAQNIFyF6dBAyJfBBBAwA0CtRtX1tEXH6Cz7uiirv0ayMxPdUNcxIAAAgjEWoDiNNaitIcAAghEL1DqnmY+atOO1a1T/e2tRwe17FpTicn8Ghf/IICArwT4rear4SQZBBAIgkByaqI6H1ZPZ93VWUdd2Er1mldRKMR81CCMPTkiEASB+BWnQdAjRwQQQMBBgSo1UnTIGc111p1ddOiZzZVeh1uhOjgcdI0AAjESoDiNESTNIIAAAnYK7N1XvRZVdNRFrTXg/m7hdVJTKiXu/TbPEUAAAU8JUJx6argIFgEEEChewJzVb3BAuk6+voPOvquLWnarya1Qi6fiVQQQcLmAC4pTlwsRHgIIIOAhgcSkkNr0rq1z7+mqE65sqzpNuRWqh4aPUBFAwBKgOLUQ+EIAAQT8JlCpapJ6n9hYAx/O1MGnNVdajWS/pUg+CCDgUwGKU58OLGkhgAACRqBG/Uo65pLWGvBAhrocXk/mSn/zOg8EEEDArQJeKk7dakhcCCCAgKsFQgkhNW5XTafe0kmn3dpJTTtUV0Iiv/5dPWgEh0CABfjtFODBJ3UEEAiWQFJKgjodWlfn399Nf7v0ANVqVHkvAJ4igAAC7hCgOHXHOBAFAgggYJtAWvVkHXRKUw14KEN9/95UldOTbOubjhBAAIGyBHxZnJaVNO8jgAACgRcISbUbp+m4y9vovHsz1K5PHSVxK9TAfywAQMANAhSnbhgFYkAAAQQcEkhIDKl5l+o6887OOuWmjmrUJr2sW6E6FCndIoBAUAQoToMy0uSJAAIIlCJg7irVtV99XfBQpv4ysJWq1+VWqKVw8RYCCMRRINjFaRxhaRoBBBDwokDVGsk64twWGmAVqQee3FTptVO8mAYxI4CAhwUoTj08eISOAAIIxEUgJNVrUUXHDm6js+7ooi5H1pc5slrevtgeAQQQiEaA4jQaNfZBAAEEAiCQkBRS8y411P+69jr5xg5qYT0PhazKVfyDAAIIxE+A4jQiWzZCAAEEgiuQmpakLkfU1xm3dw6vj1qnSVpwMcgcAQTiLkBxGndiOkAAAQT8IVCtbqoOOq2Zzh7aRX37N1FateTYJEYrCCCAwF4CFKd7YfAUAQQQQKB0AXNWv37Lqvrb4DY68cq24aWnzHJUpe/FuwgggEDkAhSnkVtFsiXbIIAAAoEQMAv2d+nXQIMe7R5eeqpGvVTWRw3EyJMkAvEXoDiNvzE9IIAAAr4VMLc+PfycFhrwcHf1PL6RKlWN561QfctIYgggsJcAxeleGDxFAAEEEIhOoG6zNJ14VTudM7SrDuhRW8mp/HmJTpK9EECA3x4OfQboFgEEEPCbgJl72iqzps69p6tOvLq96jWvooQElp7y2ziTDwLxFqA4jbcw7SOAAAIBE0iulKDuxzTUoEczdcR5LZVeO9VuAfpDAAEPC1CcenjwCB0BBBBws4ApSvtd0FKDHslU134NlFqF+ahuHi9iQ8AtAhSnbhmJkuLgdQQQQMDLAtZZ/Xotqui0WzrqzH92VsuuNZSYxJ8eLw8psSMQbwF+Q8RbmPYRQAABBJSQGFLb3rU16F89dOpNHWUK1lAo5LgMASCAgPsEKE7dNyZEhAACCPhWICFR6vqX+rrk6Z7664WtVLVGim9zJTEEEIhOgOI0OjcX7kVICCCAgHcEKqUlyayPetK1HbwTNJEigIAtAhSntjDTCQIIIIBAcQJmEf/iXnfdawSEAAK2CewuTjfb1iMdIYAAAggggAACCCBQvMBmitPiYfz8KrkhgAACCCCAAAJuFaA4devIEBcCCCCAgBcFiBkBBCoosHj3kdMpFWyI3RFAAAEEEEAAAQQQqKjAlt3FKXNOK0rpw/1JCQEEEEAAAQQQsFlg8u7idLLNHdMdAggggAACQRYgdwQQKF6A4rR4F15FAAEEEEAAAQQQcEDgjzmnoVDIHDnl1L4DI+CLLkkCAQQQQAABBBCIgYCpSXef1jfNmQLVfOeBAAIIIIAAAi4RIAwEAiTwk8l17+L0P+YFHggggAACCCCAAAIIOCAQXj1q7+I0XK06EAhdBkaARBFAAAEEEEAAgRIFPjHv7ClOrXP8pjhl3qlR4YEAAggggIDXBIgXAW8LLN5Vi2pPcborn1d3fecbAggggAACCCCAAAJ2CZiDpOG+9i9Ow4dTw+/wLwScE6BnBBBAAAEEEAiWwJ4DpPsUp7sOp3JqP1gfBrJFAAEEEAiUAMki4DqBPaf0TWT7FKfmBesxzHrwhQACCCCAAAIIIICAHQJ3791JccXpk9YGHD21EPhyvwARIoAAAggggIDnBfbMNzWZ/Kk4tU7tm8KUo6dGhwcCCCCAAALBFSBzBOwQGGXVnov37uhPxemuNzl6uguCbwgggAACCCCAAAJxE9jnlL7ppdji1KpgOXpqdHj4R4BMEEAAAQQQQMBtAsOsmnOfo6YmwGKLU/OG9eDoqYXAFwIIIIAAAgiULsC7CEQhYIpSU2v+adcSi1OrkjVHT/90qPVPLfACAggggAACCCCAAALlE7jbqjVNgfqnvUosTs2W1k6mot3nCirzOg8E/CtAZggggAACCCAQN/p/5AAAA8BJREFUZ4GfrBpzVEl9lFqc7tppkPXdHEW1vvGFAAIIIIAAAghEKcBuCEimpjS1pUr6p8zi1KpszSFXTu+XJMjrCCCAAAIIIIAAApEKlHg6f3cDZRanZkOrQDWn91n71GDwQOAPAf6NAAIIIIAAAuUTMFfnm5qy1L0iKk53tTDU+j7ZevCFAAIIIIAAAgjEUYCmfSiw2DrYeU0keUVcnFoNmjkCJ1uNmtP81je+EEAAAQQQQAABBBAoU8DUjkeWudWuDSIuTs32VoG6u3Hz3bzEAwEEyhDgbQQQQAABBAIsYGrGI3fVkBExlKs4NS3uatwcQTVHUs1LPBBAAAEEEEAAAScE6NPdAqZWPHlX7RhxpOUuTk3LVidm7qk5PGuqYfMSDwQQQAABBBBAAAEEdguYGtEcMTU14+7XIvoeVXFqWqZANQo8EIihAE0hgAACCCDgD4GoC1OTftTFqdnZKlDDnVvPzXfrG18IIIAAAggggID7BIjINoEpVk/miGnUtWGFilOrc5kC1Xq0tJ6zDqqFwBcCCCCAAAIIIBBQAVMLHmHVhVEXpsatwsWpacQ8rEDM2lXXWs/N5FfrG18IIBAfAVpFAAEEEEDAVQKm9rvW1ILWwzyvUHAxK05NFFZAZtX/TOv5T9aDLwQQQAABBBBAwFsCRFteAVPzZe6qAcu7b7Hbx7Q4NT1YwZk7AJgr+QdZP1fosK61P18IIIAAAggggAAC7hMwR0jN0dIKzS8tLq2YF6e7O7GK1FHWc1OkmvkH1lO+EEDAZgG6QwABBBBAINYCpii922q0pVXrmTPm1tPYfsWtODVhWkGbo6hmLqq5YOpV8xoPBBBAAAEEEEDA+wKBy2DvonSoVeOZn+OCENfidHfEVgKmSB1o/WyKVE73WxB8IYAAAggggAACHhAwRejuI6VxLUp3W9hSnO7ubFeROsr6bopUc8rfHE1lXupuIL4j4JAA3SKAAAIIILCXgClIzbRMM5+0plW32VKU7u7f1uJ0d6fmu5XoT9ZjoPXYXagaBHPFl3mbBwIIIIAAAggg4AcBL+RgilFTg5kjpLsL0musGs28Znv8jhWne2dqkrceBsGAhKz3zHJUJ1vfDdIn1neDY46wGjzrR74QQAABBBBAAAEEyiFgaihTS0229jEXrZuDgmaqpVkGyhwdNTWYOUJqai5rE+e+XFGc7p++VahOth6fWA+DdLL13YCZq8IMnvUjXwgg4IgAnSKAAAIIeFXA1FCmljLF6CArCXNQ0Ey1NMXq/qWYoz//PwAAAP//PG766QAAAAZJREFUAwDZmlUvcac0EwAAAABJRU5ErkJggg==;" parent="gOicUnMFKX1mOjjVZa7J-1" vertex="1">
          <mxGeometry x="292.59" y="-220" width="49" height="49" as="geometry" />
        </mxCell>
        <mxCell id="lRm5DmyOPcoMYIZVMF6W-10" value="API Gateway&lt;br&gt;Nginx&amp;nbsp;&lt;div&gt;Replica 2&lt;/div&gt;" style="sketch=0;html=1;verticalAlign=top;labelPosition=center;verticalLabelPosition=bottom;align=center;spacingTop=-6;fontSize=11;fontStyle=1;fontColor=#999999;shape=image;aspect=fixed;imageAspect=0;image=data:image/svg+xml,PHN2ZyB4bWxucz0iaHR0cDovL3d3dy53My5vcmcvMjAwMC9zdmciIGhlaWdodD0iMzY3LjgxODMyODg1NzQyMTkiIHZpZXdCb3g9IjcuMTA1NDI3MzU3NjAxMDAyZS0xNSAwIDM2Ni40MTAxODY3Njc1NzgxIDM2Ny44MTgzMjg4NTc0MjE5IiBwcmVzZXJ2ZUFzcGVjdFJhdGlvPSJ4TWlkWU1pZCBtZWV0IiB3aWR0aD0iMzY2LjQxMDE5Njc2NzU3OTEiIHZlcnNpb249IjEuMSIgaWQ9InN2Zzk4NyIgem9vbUFuZFBhbj0ibWFnbmlmeSI+JiN4YTsgIDxwYXRoIGQ9Im0gNDguMjUxOTYsMTExLjUzOTA2IGMgLTcuNjE4NjQsMmUtNCAtMTMuNzk0NzIsNi4xNzYyOCAtMTMuNzk0OTMsMTMuNzk0OTIgMi4xZS00LDcuNjE4NjQgNi4xNzYyOSwxMy43OTQ3MiAxMy43OTQ5MywxMy43OTQ5MiBoIDE0NS4xNDY5MiB2IC0yNy41ODk4NCB6IG0gMjM4LjYwODU5LDU3LjQ1MTE3IGggNjUuNzU0NjkgYyA3LjYxODY0LC0yLjFlLTQgMTMuNzk0NzEsLTYuMTc2MjggMTMuNzk0OTIsLTEzLjc5NDkyIC0yLjFlLTQsLTcuNjE4NjQgLTYuMTc2MjgsLTEzLjc5NDcxIC0xMy43OTQ5MiwtMTMuNzk0OTIgSCAyODQuODUwNiBaIE0gMTMuNzk0OTIsMTcwLjk3NDYxIEMgNi4xNzYyODAxLDE3MC45NzQ4MiAyLjEwMDkxOWUtNCwxNzcuMTUwODkgOS4xODk5MjFlLTgsMTg0Ljc2OTUzIC04LjY5OTA4MWUtNCwxOTIuMzg4OTMgNi4xNzU1MjAxLDE5OC41NjYxOSAxMy43OTQ5MiwxOTguNTY2NCBIIDE5My4zOTg4OCBWIDE3MC45NzQ2MSBaIE0gMjg0LjMwNzgsMjI3LjU2NjQgaCA2OC4zMDc0NCBjIDcuNjE4NjQsLTIuMWUtNCAxMy43OTQ3MSwtNi4xNzYyOCAxMy43OTQ5MiwtMTMuNzk0OTIgLTIuMWUtNCwtNy42MTg2NCAtNi4xNzYyOCwtMTMuNzk0NzEgLTEzLjc5NDkyLC0xMy43OTQ5MiBoIC02NS45MjE3OCB6IG0gLTIzNi4wNTU4NCwxLjY5NzI3IGMgLTcuNjE4NjQsMmUtNCAtMTMuNzk0NzIsNi4xNzYyOCAtMTMuNzk0OTMsMTMuNzk0OTIgMi4xZS00LDcuNjE4NjQgNi4xNzYyOSwxMy43OTQ3MiAxMy43OTQ5MywxMy43OTQ5MiBIIDE5My4zOTg4OCBWIDIyOS4yNjM2NyBaIE0gMTg5LjUyMTQ5LDAgYyAtMjQuNTc0MTEsMCAtNDkuMTY3MzcsMjAuMDU1MDcgLTU5LjQzNzUsNzUuMzczMDQgaCAzMC41ODAwNyBjIDQuNjE2MzMsLTI0LjE2MjA2IDE1LjM0ODk2LC00Ny41MjE0OCAyNy44NTM1MiwtNDcuNTIxNDggMTIuMTU4OCwwIDM5LjQ1ODk4LDU3LjQ1MDQ0IDM5LjQ1ODk4LDE2MC40MTQwNiAwLDY5LjkxNTEzIC0xOS41NzgwOSwxNTIuMTE1MjQgLTQxLjE3MTg3LDE1Mi4xMTUyMyAtMTUuMjY4ODEsMmUtNSAtMjEuMjE2NjgsLTI4LjMzMzU2IC0yNS40NDMzNiwtNDYuNzE4NzQgbCAtMzAuNDE0MDYsLTAuMDY4NCBjIDQuMjIwNzQsMjAuNTQwODcgMTYuOTA3NjgsNzQuMjI0NiA1Ny43MTI4OSw3NC4yMjQ2IDUzLjQzNjcyLDAgNjguOTEyMTEsLTExMS45OTMwNSA2OC45MTIxMSwtMTgwLjQ2Mjg5IEMgMjU3LjU3MjI3LDkzLjgwMDc2IDIzNi41ODM0LDAgMTg5LjUyMTQ5LDAgWiIgc3R5bGU9ImNvbG9yOiMwMDAwMDA7b3BhY2l0eToxO2ZpbGw6IzQyODVmNDtmaWxsLW9wYWNpdHk6MTtzdHJva2UtbGluZWNhcDpyb3VuZDstaW5rc2NhcGUtc3Ryb2tlOm5vbmUiLz4mI3hhOzwvc3ZnPg==;" parent="gOicUnMFKX1mOjjVZa7J-1" vertex="1">
          <mxGeometry x="210" y="240" width="42" height="42" as="geometry" />
        </mxCell>
        <mxCell id="lRm5DmyOPcoMYIZVMF6W-12" value="&lt;span style=&quot;background-color: transparent; color: light-dark(rgb(0, 0, 0), rgb(255, 255, 255));&quot;&gt;Golang&lt;/span&gt;&lt;div&gt;GIN API&lt;/div&gt;" style="aspect=fixed;sketch=0;html=1;dashed=0;whitespace=wrap;verticalLabelPosition=bottom;verticalAlign=top;fillColor=#2875E2;strokeColor=#ffffff;points=[[0.005,0.63,0],[0.1,0.2,0],[0.9,0.2,0],[0.5,0,0],[0.995,0.63,0],[0.72,0.99,0],[0.5,1,0],[0.28,0.99,0]];shape=mxgraph.kubernetes.icon2;prIcon=pod" parent="gOicUnMFKX1mOjjVZa7J-1" vertex="1">
          <mxGeometry x="493.57" y="161" width="50" height="48" as="geometry" />
        </mxCell>
        <mxCell id="lRm5DmyOPcoMYIZVMF6W-13" value="" style="shape=umlFrame;whiteSpace=wrap;html=1;pointerEvents=0;width=10;height=15;" parent="gOicUnMFKX1mOjjVZa7J-1" vertex="1">
          <mxGeometry x="463.57" y="57.65" width="120" height="234.7" as="geometry" />
        </mxCell>
        <mxCell id="lRm5DmyOPcoMYIZVMF6W-20" value="HPA&amp;nbsp;&lt;div&gt;90% CPU utilization&lt;/div&gt;" style="fontStyle=0;html=1;whiteSpace=wrap;" parent="gOicUnMFKX1mOjjVZa7J-1" vertex="1">
          <mxGeometry x="463.57" y="255" width="120" height="40" as="geometry" />
        </mxCell>
        <mxCell id="vftqZzZHb86Vtl56lEkX-1" value="ghcr secrets" style="aspect=fixed;sketch=0;html=1;dashed=0;whitespace=wrap;verticalLabelPosition=bottom;verticalAlign=top;fillColor=#2875E2;strokeColor=#ffffff;points=[[0.005,0.63,0],[0.1,0.2,0],[0.9,0.2,0],[0.5,0,0],[0.995,0.63,0],[0.72,0.99,0],[0.5,1,0],[0.28,0.99,0]];shape=mxgraph.kubernetes.icon2;kubernetesLabel=1;prIcon=secret" parent="gOicUnMFKX1mOjjVZa7J-1" vertex="1">
          <mxGeometry x="564.73" y="191" width="41.67" height="40" as="geometry" />
        </mxCell>
        <mxCell id="gOicUnMFKX1mOjjVZa7J-33" value="ClusterIP" style="aspect=fixed;sketch=0;html=1;dashed=0;whitespace=wrap;verticalLabelPosition=bottom;verticalAlign=top;fillColor=#2875E2;strokeColor=#ffffff;points=[[0.005,0.63,0],[0.1,0.2,0],[0.9,0.2,0],[0.5,0,0],[0.995,0.63,0],[0.72,0.99,0],[0.5,1,0],[0.28,0.99,0]];shape=mxgraph.kubernetes.icon2;kubernetesLabel=1;prIcon=svc" parent="gOicUnMFKX1mOjjVZa7J-1" vertex="1">
          <mxGeometry x="379" y="127" width="50" height="48" as="geometry" />
        </mxCell>
        <mxCell id="DR8-hx9e1hwPXc40GI2A-2" value="ClusterIP" style="aspect=fixed;sketch=0;html=1;dashed=0;whitespace=wrap;verticalLabelPosition=bottom;verticalAlign=top;fillColor=#2875E2;strokeColor=#ffffff;points=[[0.005,0.63,0],[0.1,0.2,0],[0.9,0.2,0],[0.5,0,0],[0.995,0.63,0],[0.72,0.99,0],[0.5,1,0],[0.28,0.99,0]];shape=mxgraph.kubernetes.icon2;kubernetesLabel=1;prIcon=svc" parent="gOicUnMFKX1mOjjVZa7J-1" vertex="1">
          <mxGeometry x="660" y="109.75" width="50" height="48" as="geometry" />
        </mxCell>
        <mxCell id="gOicUnMFKX1mOjjVZa7J-18" value="MongoDB PVC" style="aspect=fixed;sketch=0;html=1;dashed=0;whitespace=wrap;verticalLabelPosition=bottom;verticalAlign=top;fillColor=#2875E2;strokeColor=#ffffff;points=[[0.005,0.63,0],[0.1,0.2,0],[0.9,0.2,0],[0.5,0,0],[0.995,0.63,0],[0.72,0.99,0],[0.5,1,0],[0.28,0.99,0]];shape=mxgraph.kubernetes.icon2;kubernetesLabel=1;prIcon=pvc" parent="gOicUnMFKX1mOjjVZa7J-1" vertex="1">
          <mxGeometry x="777.89" y="61.81999999999999" width="50" height="48" as="geometry" />
        </mxCell>
        <mxCell id="gOicUnMFKX1mOjjVZa7J-19" value="" style="dashed=0;outlineConnect=0;html=1;align=center;labelPosition=center;verticalLabelPosition=bottom;verticalAlign=top;shape=mxgraph.weblogos.mongodb" parent="gOicUnMFKX1mOjjVZa7J-1" vertex="1">
          <mxGeometry x="817.8900000000001" y="82.82" width="16.35" height="34.2" as="geometry" />
        </mxCell>
        <mxCell id="lRm5DmyOPcoMYIZVMF6W-24" value="Master Node" style="aspect=fixed;sketch=0;html=1;dashed=0;whitespace=wrap;verticalLabelPosition=bottom;verticalAlign=top;fillColor=#2875E2;strokeColor=#ffffff;points=[[0.005,0.63,0],[0.1,0.2,0],[0.9,0.2,0],[0.5,0,0],[0.995,0.63,0],[0.72,0.99,0],[0.5,1,0],[0.28,0.99,0]];shape=mxgraph.kubernetes.icon2;kubernetesLabel=1;prIcon=control_plane" parent="gOicUnMFKX1mOjjVZa7J-1" vertex="1">
          <mxGeometry x="224.48" y="-140" width="55.52" height="53.3" as="geometry" />
        </mxCell>
        <mxCell id="lRm5DmyOPcoMYIZVMF6W-31" style="edgeStyle=orthogonalEdgeStyle;rounded=0;orthogonalLoop=1;jettySize=auto;html=1;" parent="gOicUnMFKX1mOjjVZa7J-1" source="lRm5DmyOPcoMYIZVMF6W-26" target="5mahpEfX9CEQ4QkffhxW-1" edge="1">
          <mxGeometry relative="1" as="geometry">
            <Array as="points">
              <mxPoint x="689" y="-40" />
              <mxPoint x="480" y="-40" />
              <mxPoint x="480" y="-312" />
            </Array>
          </mxGeometry>
        </mxCell>
        <mxCell id="lRm5DmyOPcoMYIZVMF6W-26" value="" style="aspect=fixed;sketch=0;html=1;dashed=0;whitespace=wrap;verticalLabelPosition=bottom;verticalAlign=top;fillColor=#2875E2;strokeColor=#ffffff;points=[[0.005,0.63,0],[0.1,0.2,0],[0.9,0.2,0],[0.5,0,0],[0.995,0.63,0],[0.72,0.99,0],[0.5,1,0],[0.28,0.99,0]];shape=mxgraph.kubernetes.icon2;kubernetesLabel=1;prIcon=job" parent="gOicUnMFKX1mOjjVZa7J-1" vertex="1">
          <mxGeometry x="663.73" y="-19.999999999999993" width="50" height="48" as="geometry" />
        </mxCell>
        <mxCell id="lRm5DmyOPcoMYIZVMF6W-27" value="seeder job" style="shape=umlFrame;whiteSpace=wrap;html=1;pointerEvents=0;width=71;height=32;" parent="gOicUnMFKX1mOjjVZa7J-1" vertex="1">
          <mxGeometry x="657.23" y="-52" width="71.77" height="90" as="geometry" />
        </mxCell>
        <mxCell id="lRm5DmyOPcoMYIZVMF6W-29" style="rounded=0;orthogonalLoop=1;jettySize=auto;html=1;entryX=0.9;entryY=0.2;entryDx=0;entryDy=0;entryPerimeter=0;dashed=1;" parent="gOicUnMFKX1mOjjVZa7J-1" source="lRm5DmyOPcoMYIZVMF6W-26" target="vftqZzZHb86Vtl56lEkX-1" edge="1">
          <mxGeometry relative="1" as="geometry" />
        </mxCell>
        <mxCell id="lRm5DmyOPcoMYIZVMF6W-30" style="rounded=0;orthogonalLoop=1;jettySize=auto;html=1;entryX=0.5;entryY=0;entryDx=0;entryDy=0;entryPerimeter=0;" parent="gOicUnMFKX1mOjjVZa7J-1" source="lRm5DmyOPcoMYIZVMF6W-26" target="DR8-hx9e1hwPXc40GI2A-2" edge="1">
          <mxGeometry relative="1" as="geometry">
            <Array as="points">
              <mxPoint x="680" y="70" />
            </Array>
          </mxGeometry>
        </mxCell>
        <mxCell id="WrLINpsRZo3zSWrrOjiG-1" value="Worker&amp;nbsp;" style="aspect=fixed;sketch=0;html=1;dashed=0;whitespace=wrap;verticalLabelPosition=bottom;verticalAlign=top;fillColor=#2875E2;strokeColor=#ffffff;points=[[0.005,0.63,0],[0.1,0.2,0],[0.9,0.2,0],[0.5,0,0],[0.995,0.63,0],[0.72,0.99,0],[0.5,1,0],[0.28,0.99,0]];shape=mxgraph.kubernetes.icon2;kubernetesLabel=1;prIcon=node" parent="gOicUnMFKX1mOjjVZa7J-1" vertex="1">
          <mxGeometry x="350" y="-139.35" width="54.17" height="52" as="geometry" />
        </mxCell>
        <mxCell id="WrLINpsRZo3zSWrrOjiG-3" style="edgeStyle=orthogonalEdgeStyle;rounded=0;orthogonalLoop=1;jettySize=auto;html=1;entryX=0.666;entryY=0.037;entryDx=0;entryDy=0;entryPerimeter=0;" parent="gOicUnMFKX1mOjjVZa7J-1" source="lRm5DmyOPcoMYIZVMF6W-5" target="lRm5DmyOPcoMYIZVMF6W-24" edge="1">
          <mxGeometry relative="1" as="geometry" />
        </mxCell>
        <mxCell id="WrLINpsRZo3zSWrrOjiG-9" value="&lt;div style=&quot;font-family: &amp;quot;Droid Sans Mono&amp;quot;, &amp;quot;monospace&amp;quot;, monospace; line-height: 19px; white-space-collapse: preserve;&quot;&gt;&lt;span style=&quot;color: rgb(163, 21, 21);&quot;&gt;&lt;font style=&quot;font-size: 10px;&quot;&gt;STD2-2-6&lt;/font&gt;&lt;/span&gt;&lt;/div&gt;" style="edgeLabel;html=1;align=center;verticalAlign=middle;resizable=0;points=[];" parent="WrLINpsRZo3zSWrrOjiG-3" vertex="1" connectable="0">
          <mxGeometry x="0.165" y="1" relative="1" as="geometry">
            <mxPoint y="7" as="offset" />
          </mxGeometry>
        </mxCell>
        <mxCell id="WrLINpsRZo3zSWrrOjiG-4" style="edgeStyle=orthogonalEdgeStyle;rounded=0;orthogonalLoop=1;jettySize=auto;html=1;entryX=0.504;entryY=0.163;entryDx=0;entryDy=0;entryPerimeter=0;" parent="gOicUnMFKX1mOjjVZa7J-1" source="lRm5DmyOPcoMYIZVMF6W-5" target="lRm5DmyOPcoMYIZVMF6W-3" edge="1">
          <mxGeometry relative="1" as="geometry" />
        </mxCell>
        <mxCell id="WrLINpsRZo3zSWrrOjiG-12" value="&lt;span style=&quot;color: rgb(163, 21, 21); font-family: &amp;quot;Droid Sans Mono&amp;quot;, &amp;quot;monospace&amp;quot;, monospace; font-size: 10px; white-space-collapse: preserve;&quot;&gt;STD2-1-2&lt;/span&gt;" style="edgeLabel;html=1;align=center;verticalAlign=middle;resizable=0;points=[];" parent="WrLINpsRZo3zSWrrOjiG-4" vertex="1" connectable="0">
          <mxGeometry x="-0.4707" y="2" relative="1" as="geometry">
            <mxPoint as="offset" />
          </mxGeometry>
        </mxCell>
        <mxCell id="WrLINpsRZo3zSWrrOjiG-5" style="edgeStyle=orthogonalEdgeStyle;rounded=0;orthogonalLoop=1;jettySize=auto;html=1;entryX=0.5;entryY=0;entryDx=0;entryDy=0;entryPerimeter=0;" parent="gOicUnMFKX1mOjjVZa7J-1" source="lRm5DmyOPcoMYIZVMF6W-5" target="WrLINpsRZo3zSWrrOjiG-1" edge="1">
          <mxGeometry relative="1" as="geometry" />
        </mxCell>
        <mxCell id="WrLINpsRZo3zSWrrOjiG-10" value="&lt;div style=&quot;font-family: &amp;quot;Droid Sans Mono&amp;quot;, &amp;quot;monospace&amp;quot;, monospace; line-height: 19px; white-space-collapse: preserve;&quot;&gt;&lt;span style=&quot;color: rgb(163, 21, 21);&quot;&gt;&lt;font style=&quot;font-size: 10px;&quot;&gt;STD2-1-2&lt;/font&gt;&lt;/span&gt;&lt;/div&gt;" style="edgeLabel;html=1;align=center;verticalAlign=middle;resizable=0;points=[];" parent="WrLINpsRZo3zSWrrOjiG-5" vertex="1" connectable="0">
          <mxGeometry x="0.484" y="2" relative="1" as="geometry">
            <mxPoint as="offset" />
          </mxGeometry>
        </mxCell>
        <mxCell id="WrLINpsRZo3zSWrrOjiG-7" value="kubeconfig.yaml" style="image;aspect=fixed;html=1;points=[];align=center;fontSize=12;image=img/lib/azure2/general/File.svg;" parent="gOicUnMFKX1mOjjVZa7J-1" vertex="1">
          <mxGeometry x="160" y="-220" width="37.33" height="46" as="geometry" />
        </mxCell>
        <mxCell id="WrLINpsRZo3zSWrrOjiG-13" style="rounded=0;orthogonalLoop=1;jettySize=auto;html=1;dashed=1;endArrow=oval;endFill=0;exitX=0;exitY=0;exitDx=0;exitDy=0;exitPerimeter=0;" parent="gOicUnMFKX1mOjjVZa7J-1" source="5mahpEfX9CEQ4QkffhxW-2" edge="1">
          <mxGeometry relative="1" as="geometry">
            <mxPoint x="60" y="180" as="targetPoint" />
            <mxPoint x="275" y="503" as="sourcePoint" />
          </mxGeometry>
        </mxCell>
      </root>
    </mxGraphModel>
  </diagram>
</mxfile>
